<svg data-v-2cb57da0="" version="1.0" xmlns="http://www.w3.org/2000/svg" width="340" height="250" viewBox="0 0 340.000000 250.000000" preserveAspectRatio="xMidYMid meet" color-interpolation-filters="sRGB" style="margin: auto;"><g class="icon" transform="translate(84.73999786376953,47.06092071533203)"><g fill="#b722ff"><g transform="translate(10.260002136230469,0)" mask="url(#09341f68-87c8-4732-9a5f-5eb5f8382228)"><g><rect fill="#b722ff" fill-opacity="0" stroke-width="2" x="0" y="0" width="150" height="155.87816562574693" class="image-rect" /><svg x="0" y="0" width="150" height="155.87816562574693" class="image-svg-svg primary"><svg xmlns="http://www.w3.org/2000/svg" viewBox="5.998107433319092 5.001715660095215 848.6570434570312 881.9102783203125"><path fill="#424242" d="M717.37 303.14c-2.68-4.59-5.44-9.17-8.42-13.76C598.51 119.18 444.24-10.81 365.91 6.56c-22.46 4.59-45.68 22.74-68.15 50.97 45.48 1.57 90.96 20.34 132.88 52.7 23.9 11.64 52.71 32.34 83.19 60.29 36.91 29.37 159.56 168.27 227.52 333.7 26.13 66.68 33.61 120.77 19.5 142.54l-.47.7c-15.26 23.52-75.35 39.42-155.95 40.82-7.23 27.37-16.69 52.8-28.21 75.79 128.54 4.73 234.69-17.88 264.65-64.91 41.97-63.5-15.5-238.22-123.5-396.02z" /><linearGradient id="a15faca58-17ae-4510-9ebf-bd9bb74b2989" gradientUnits="userSpaceOnUse" x1="3970.418" y1="-3019.659" x2="3817.503" y2="-2994.173" gradientTransform="rotate(-87.025 4164.292 378.38)"><stop offset="0" stop-color="#f0584b" /><stop offset="1" stop-color="#c73f3d" /></linearGradient><path fill="url(#a15faca58-17ae-4510-9ebf-bd9bb74b2989)" d="M811.7 473.34a874.041 874.041 0 0 0-20.99-45.53c-10.68 34.1-23.92 69.3-39.27 104.43 17.68 53.56 21.48 95.89 9.4 114.5l-.47.7c-2.74 4.25-7.04 8.2-12.53 11.92 30.22-15.76 88.19-43.71 63.86-186.02z" /><path fill="#F90" d="M726.65 211.21l.59.64c19.44 21.55 18.52 87.45-3.09 169.66C640.79 600.47 598 626.17 501.5 721.49c-65.78 52.61-125.03 79.91-152.49 70.99l-.82-.26c-18.42-5.96-38.84-33.58-57.05-75.59-32.8-9.19-63.99-19.74-92.9-31.24 29.41 105.11 73.59 183.07 120.83 197.95 70.79 23.66 220.19-72.78 343.35-213.42 155.9-184.06 194.81-458.38 135.59-522.45-38.18-41.3-147.38-47.46-275.1-21.8 30.2 19.16 60.76 41.03 90.72 64.99 56.31-3.22 98.18 4.08 113.02 20.55z" /><linearGradient id="b77010bb7-f5cf-402f-91bb-ae336e7ecfce" gradientUnits="userSpaceOnUse" x1="3593.722" y1="-2976.62" x2="4073.848" y2="-2976.62" gradientTransform="rotate(-87.025 4164.292 378.38)"><stop offset="0" stop-color="#fcba39" /><stop offset="1" stop-color="#d96d2d" /></linearGradient><path fill="url(#b77010bb7-f5cf-402f-91bb-ae336e7ecfce)" d="M801.36 450.07c-.22-.47-.44-.93-.65-1.39.11.21.18.46.32.69.1.23.22.47.33.7z" /><linearGradient id="c4104f108-6890-428e-9a08-033082ea31d5" gradientUnits="userSpaceOnUse" x1="3592.972" y1="-2965.878" x2="4073.845" y2="-2965.878" gradientTransform="rotate(-87.025 4164.292 378.38)"><stop offset="0" stop-color="#fcba39" /><stop offset="1" stop-color="#d96d2d" /></linearGradient><path fill="url(#c4104f108-6890-428e-9a08-033082ea31d5)" d="M810.83 471.37c-.11-.24-.22-.51-.34-.76.1.22.18.43.28.63.02.07.05.1.06.13z" /><radialGradient id="df17ca2dc-94b0-4893-bd0a-ba1d9cd7d33d" cx="3854.802" cy="-3342.029" r="341.002" gradientTransform="rotate(-87.025 4164.292 378.38)"><stop offset="0" stop-color="#f9b314" /><stop offset="1" stop-color="#ec5222" /></radialGradient><path fill="url(#df17ca2dc-94b0-4893-bd0a-ba1d9cd7d33d)" d="M810.49 470.61a770.91 770.91 0 0 0-7.43-16.76c1.48 3.25 2.88 6.47 4.31 9.7 1.02 2.34 2.13 4.75 3.12 7.06z" /><radialGradient id="e2f8bc5d5-8e4d-443d-b9e2-db3bb98642fb" cx="3854.861" cy="-3342.198" r="341.148" gradientTransform="rotate(-87.025 4164.292 378.38)"><stop offset="0" stop-color="#f9b314" /><stop offset="1" stop-color="#ec5222" /></radialGradient><path fill="url(#e2f8bc5d5-8e4d-443d-b9e2-db3bb98642fb)" d="M811.74 473.58c34.91 82.33 49.54 155.84 38.37 202 .23-.18.51-.35.71-.54 11.38-45.85-4.14-119.55-39.1-201.58.01.04.02.08.02.12z" /><radialGradient id="f2268d93f-a30f-4cf0-9429-09b4e5df1086" cx="3854.882" cy="-3342.126" r="341.078" gradientTransform="rotate(-87.025 4164.292 378.38)"><stop offset="0" stop-color="#f9b314" /><stop offset="1" stop-color="#ec5222" /></radialGradient><path fill="url(#f2268d93f-a30f-4cf0-9429-09b4e5df1086)" d="M790.71 427.81c3.47 6.98 6.77 13.94 10 20.86-3.23-6.92-6.53-13.87-10-20.86z" /><linearGradient id="gf872c43c-8890-4771-b971-41b57220f59c" gradientUnits="userSpaceOnUse" x1="3589.765" y1="-2967.653" x2="4075.715" y2="-2967.653" gradientTransform="rotate(-87.025 4164.292 378.38)"><stop offset="0" stop-color="#fcba39" /><stop offset="1" stop-color="#d96d2d" /></linearGradient><path fill="url(#gf872c43c-8890-4771-b971-41b57220f59c)" d="M810.78 471.25c-.1-.2-.18-.41-.28-.63-1-2.31-2.11-4.72-3.12-7.05 1.13 2.57 2.31 5.14 3.4 7.68z" /><radialGradient id="h9a56dcd4-5d3c-4940-b934-a20c0efac808" cx="3854.906" cy="-3341.698" r="340.698" gradientTransform="rotate(-87.025 4164.292 378.38)"><stop offset="0" stop-color="#f9b314" /><stop offset="1" stop-color="#ec5222" /></radialGradient><path fill="url(#h9a56dcd4-5d3c-4940-b934-a20c0efac808)" d="M810.78 471.25c-.1-.2-.18-.41-.28-.63-1-2.31-2.11-4.72-3.12-7.05 1.13 2.57 2.31 5.14 3.4 7.68z" /><linearGradient id="i1f09dce8-9984-4e99-9003-7970bf9d2193" gradientUnits="userSpaceOnUse" x1="3589.413" y1="-3008.344" x2="4075.959" y2="-3008.344" gradientTransform="rotate(-87.025 4164.292 378.38)"><stop offset="0" stop-color="#fcba39" /><stop offset="1" stop-color="#d96d2d" /></linearGradient><path fill="url(#i1f09dce8-9984-4e99-9003-7970bf9d2193)" d="M757.37 651.26c1.13-1.24 2.16-2.51 3.01-3.82-.85 1.32-1.89 2.57-3.01 3.82z" /><radialGradient id="jafbf7637-e5cd-4d01-970a-b8551172c85a" cx="3854.88" cy="-3342.837" r="341.716" gradientTransform="rotate(-87.025 4164.292 378.38)"><stop offset="0" stop-color="#f9b314" /><stop offset="1" stop-color="#ec5222" /></radialGradient><path fill="url(#jafbf7637-e5cd-4d01-970a-b8551172c85a)" d="M757.37 651.26c1.13-1.24 2.16-2.51 3.01-3.82-.85 1.32-1.89 2.57-3.01 3.82z" /><linearGradient id="k262e2e28-d159-4af0-940b-20f6cd13d6a1" gradientUnits="userSpaceOnUse" x1="3589.43" y1="-3147.678" x2="4075.905" y2="-3147.678" gradientTransform="rotate(-87.025 4164.292 378.38)"><stop offset="0" stop-color="#fcba39" /><stop offset="1" stop-color="#d96d2d" /></linearGradient><path fill="url(#k262e2e28-d159-4af0-940b-20f6cd13d6a1)" d="M811.74 473.58c24.21 142.09-33.69 170.02-63.89 185.79.12-.07.21-.15.31-.25-26.04 17.72-81.94 28.96-152.48 29.27-98.4-10.07-161.58-22.06-210.65-37.73.61 10.49 1.9 21.02 4.15 31.55.86 4.06 1.87 8.09 2.96 12.07 193.16 51.92 402.61 27.34 457.97-18.71 11.17-46.15-3.46-119.66-38.37-201.99z" /><linearGradient id="l56b05569-248a-45fa-8828-1b4e8fda00e7" gradientUnits="userSpaceOnUse" x1="3590.375" y1="-3012.132" x2="4073.043" y2="-3012.132" gradientTransform="rotate(-87.025 4164.292 378.38)"><stop offset="0" stop-color="#fcba39" /><stop offset="1" stop-color="#d96d2d" /></linearGradient><path fill="url(#l56b05569-248a-45fa-8828-1b4e8fda00e7)" d="M753.81 654.76c.72-.66 1.42-1.29 2.08-1.93-.65.63-1.36 1.27-2.08 1.93z" /><radialGradient id="m80bc7386-f4fa-4fb3-85a4-99ef1ba30cba" cx="3853.725" cy="-3339.369" r="338.259" gradientTransform="rotate(-87.025 4164.292 378.38)"><stop offset="0" stop-color="#f9b314" /><stop offset="1" stop-color="#ec5222" /></radialGradient><path fill="url(#m80bc7386-f4fa-4fb3-85a4-99ef1ba30cba)" d="M753.81 654.76c.72-.66 1.42-1.29 2.08-1.93-.65.63-1.36 1.27-2.08 1.93z" /><linearGradient id="n4d7473a2-37f8-4605-804f-85fbbfde4375" gradientUnits="userSpaceOnUse" x1="3589.706" y1="-2982.336" x2="4075.76" y2="-2982.336" gradientTransform="rotate(-87.025 4164.292 378.38)"><stop offset="0" stop-color="#fcba39" /><stop offset="1" stop-color="#d96d2d" /></linearGradient><path fill="url(#n4d7473a2-37f8-4605-804f-85fbbfde4375)" d="M800.71 448.68c-3.22-6.92-6.53-13.88-10-20.86 3.58 7.23 7 14.42 10.31 21.55-.13-.24-.21-.48-.31-.69z" /><radialGradient id="od0959cc5-c089-4746-a6cb-1dab9912f9a1" cx="3854.904" cy="-3342.443" r="341.362" gradientTransform="rotate(-87.025 4164.292 378.38)"><stop offset="0" stop-color="#f9b314" /><stop offset="1" stop-color="#ec5222" /></radialGradient><path fill="url(#od0959cc5-c089-4746-a6cb-1dab9912f9a1)" d="M800.71 448.68c-3.22-6.92-6.53-13.88-10-20.86 3.58 7.23 7 14.42 10.31 21.55-.13-.24-.21-.48-.31-.69z" /><linearGradient id="p9f55e614-d6f3-4727-a2ac-e50cc41397b4" gradientUnits="userSpaceOnUse" x1="3976.866" y1="-2978.614" x2="3824.7" y2="-2953.253" gradientTransform="rotate(-87.025 4164.292 378.38)"><stop offset="0" stop-color="#f0584b" /><stop offset="1" stop-color="#c73f3d" /></linearGradient><path fill="url(#p9f55e614-d6f3-4727-a2ac-e50cc41397b4)" d="M811.72 473.46c-.02-.04-.02-.07-.02-.11-.28-.67-.6-1.31-.87-1.97.03.06.04.1.04.16.29.65.57 1.26.85 1.92z" /><linearGradient id="q5cb9c557-5e60-42f7-b1e1-187b8478fcae" gradientUnits="userSpaceOnUse" x1="3976.15" y1="-2985.288" x2="3823.262" y2="-2959.807" gradientTransform="rotate(-87.025 4164.292 378.38)"><stop offset="0" stop-color="#f0584b" /><stop offset="1" stop-color="#c73f3d" /></linearGradient><path fill="url(#q5cb9c557-5e60-42f7-b1e1-187b8478fcae)" d="M803.06 453.86c-.58-1.26-1.12-2.5-1.71-3.79.32.67.59 1.33.89 1.99.28.6.55 1.2.82 1.8z" /><linearGradient id="ra6d0533b-ce56-4764-99ea-bc20d6fd44ea" gradientUnits="userSpaceOnUse" x1="3963.472" y1="-3058.251" x2="3810.856" y2="-3032.815" gradientTransform="rotate(-87.025 4164.292 378.38)"><stop offset="0" stop-color="#f0584b" /><stop offset="1" stop-color="#c73f3d" /></linearGradient><path fill="url(#ra6d0533b-ce56-4764-99ea-bc20d6fd44ea)" d="M748.16 659.12c2.08-1.4 3.95-2.87 5.65-4.36-1.72 1.49-3.57 2.96-5.65 4.36z" /><linearGradient id="s1eefe0e9-a2a7-4fc3-aab4-82e3f403839c" gradientUnits="userSpaceOnUse" x1="3967.854" y1="-3052.74" x2="3813.184" y2="-3026.961" gradientTransform="rotate(-87.025 4164.292 378.38)"><stop offset="0" stop-color="#f0584b" /><stop offset="1" stop-color="#c73f3d" /></linearGradient><path fill="url(#s1eefe0e9-a2a7-4fc3-aab4-82e3f403839c)" d="M755.89 652.83c.53-.53 1.02-1.05 1.48-1.57-.47.52-.95 1.04-1.48 1.57z" /><linearGradient id="t4c082e81-1db0-4c65-a6c7-7f4dcea869f6" gradientUnits="userSpaceOnUse" x1="3589.334" y1="-2975.949" x2="4075.937" y2="-2975.949" gradientTransform="rotate(-87.025 4164.292 378.38)"><stop offset="0" stop-color="#fcba39" /><stop offset="1" stop-color="#d96d2d" /></linearGradient><path fill="url(#t4c082e81-1db0-4c65-a6c7-7f4dcea869f6)" d="M802.24 452.06c-.3-.66-.57-1.32-.89-1.99-.11-.23-.22-.47-.33-.7.42.89.8 1.79 1.22 2.69z" /><linearGradient id="uef25282d-9b33-47cf-91e2-2271c3afbd52" gradientUnits="userSpaceOnUse" x1="3975.994" y1="-2985.697" x2="3823.288" y2="-2960.246" gradientTransform="rotate(-87.025 4164.292 378.38)"><stop offset="0" stop-color="#f0584b" /><stop offset="1" stop-color="#c73f3d" /></linearGradient><path fill="url(#uef25282d-9b33-47cf-91e2-2271c3afbd52)" d="M802.24 452.06c-.3-.66-.57-1.32-.89-1.99-.11-.23-.22-.47-.33-.7.42.89.8 1.79 1.22 2.69z" /><linearGradient id="v02933143-f468-49d3-8e96-51347abf81e8" gradientUnits="userSpaceOnUse" x1="3574.008" y1="-2965.695" x2="4084.842" y2="-2965.695" gradientTransform="rotate(-87.025 4164.292 378.38)"><stop offset="0" stop-color="#fcba39" /><stop offset="1" stop-color="#d96d2d" /></linearGradient><path fill="url(#v02933143-f468-49d3-8e96-51347abf81e8)" d="M810.88 471.53c0-.06-.02-.1-.04-.16-.02-.04-.04-.06-.06-.12.04.09.08.18.1.28z" /><linearGradient id="wc016fafd-0b7b-4830-a6b6-bd4cebe185af" gradientUnits="userSpaceOnUse" x1="3981.321" y1="-2979.692" x2="3820.509" y2="-2952.891" gradientTransform="rotate(-87.025 4164.292 378.38)"><stop offset="0" stop-color="#f0584b" /><stop offset="1" stop-color="#c73f3d" /></linearGradient><path fill="url(#wc016fafd-0b7b-4830-a6b6-bd4cebe185af)" d="M810.88 471.53c0-.06-.02-.1-.04-.16-.02-.04-.04-.06-.06-.12.04.09.08.18.1.28z" /><radialGradient id="xfec54907-1f19-4c72-abdf-8c298a06c7df" cx="3854.867" cy="-3342.347" r="341.283" gradientTransform="rotate(-87.025 4164.292 378.38)"><stop offset="0" stop-color="#f9b314" /><stop offset="1" stop-color="#ec5222" /></radialGradient><path fill="url(#xfec54907-1f19-4c72-abdf-8c298a06c7df)" d="M807.37 463.56c-1.43-3.23-2.83-6.45-4.31-9.7-.27-.6-.54-1.2-.82-1.8 1.77 3.86 3.44 7.67 5.13 11.5z" /><linearGradient id="y8e160249-dbae-45c2-bf41-fc29a61ed40c" gradientUnits="userSpaceOnUse" x1="3976.434" y1="-2983.386" x2="3823.592" y2="-2957.913" gradientTransform="rotate(-87.025 4164.292 378.38)"><stop offset="0" stop-color="#f0584b" /><stop offset="1" stop-color="#c73f3d" /></linearGradient><path fill="url(#y8e160249-dbae-45c2-bf41-fc29a61ed40c)" d="M807.37 463.56c-1.43-3.23-2.83-6.45-4.31-9.7-.27-.6-.54-1.2-.82-1.8 1.77 3.86 3.44 7.67 5.13 11.5z" /><radialGradient id="z0a5494fe-7907-43a9-b646-d1c59cbe52a0" cx="3855.067" cy="-3347.97" r="346.281" gradientTransform="rotate(-87.025 4164.292 378.38)"><stop offset="0" stop-color="#f9b314" /><stop offset="1" stop-color="#ec5222" /></radialGradient><path fill="url(#z0a5494fe-7907-43a9-b646-d1c59cbe52a0)" d="M811.74 473.58c0-.04-.01-.08-.02-.12-.28-.66-.56-1.27-.84-1.93.3.68.55 1.35.86 2.05z" /><linearGradient id="Acd98ae6e-bb6b-4c5b-953b-b7e2bc1018b3" gradientUnits="userSpaceOnUse" x1="3976.729" y1="-2978.575" x2="3824.803" y2="-2953.254" gradientTransform="rotate(-87.025 4164.292 378.38)"><stop offset="0" stop-color="#f0584b" /><stop offset="1" stop-color="#c73f3d" /></linearGradient><path fill="url(#Acd98ae6e-bb6b-4c5b-953b-b7e2bc1018b3)" d="M811.74 473.58c0-.04-.01-.08-.02-.12-.28-.66-.56-1.27-.84-1.93.3.68.55 1.35.86 2.05z" /><linearGradient id="B2b6c62b0-6514-4de4-8c4f-b869b4d90146" gradientUnits="userSpaceOnUse" x1="3589.423" y1="-2988.603" x2="4075.87" y2="-2988.603" gradientTransform="rotate(-87.025 4164.292 378.38)"><stop offset="0" stop-color="#fcba39" /><stop offset="1" stop-color="#d96d2d" /></linearGradient><path fill="url(#B2b6c62b0-6514-4de4-8c4f-b869b4d90146)" d="M811.74 473.58c-.31-.69-.56-1.37-.86-2.05-.02-.1-.06-.19-.1-.28-1.09-2.54-2.27-5.11-3.4-7.69-1.69-3.83-3.36-7.64-5.13-11.51-.42-.9-.81-1.79-1.22-2.69-3.31-7.13-6.74-14.32-10.31-21.55-10.68 34.1-23.92 69.3-39.27 104.43 17.68 53.56 21.48 95.89 9.4 114.5l-.47.7c-.85 1.31-1.88 2.58-3.01 3.82-.46.52-.95 1.04-1.48 1.57-.66.63-1.35 1.27-2.08 1.93-1.7 1.5-3.57 2.96-5.65 4.36-.1.1-.19.18-.31.25 30.19-15.77 88.1-43.7 63.89-185.79z" /><radialGradient id="Caf9b6b14-3a16-4007-b22a-48781c9272b6" cx="3854.838" cy="-3342.306" r="341.245" gradientTransform="rotate(-87.025 4164.292 378.38)"><stop offset="0" stop-color="#f9b314" /><stop offset="1" stop-color="#ec5222" /></radialGradient><path fill="url(#Caf9b6b14-3a16-4007-b22a-48781c9272b6)" d="M811.74 473.58c-.31-.69-.56-1.37-.86-2.05-.02-.1-.06-.19-.1-.28-1.09-2.54-2.27-5.11-3.4-7.69-1.69-3.83-3.36-7.64-5.13-11.51-.42-.9-.81-1.79-1.22-2.69-3.31-7.13-6.74-14.32-10.31-21.55-10.68 34.1-23.92 69.3-39.27 104.43 17.68 53.56 21.48 95.89 9.4 114.5l-.47.7c-.85 1.31-1.88 2.58-3.01 3.82-.46.52-.95 1.04-1.48 1.57-.66.63-1.35 1.27-2.08 1.93-1.7 1.5-3.57 2.96-5.65 4.36-.1.1-.19.18-.31.25 30.19-15.77 88.1-43.7 63.89-185.79z" /><path fill="#F90" d="M802.32 452.22c-.03-.05-.05-.11-.07-.17-.42-.9-.81-1.79-1.22-2.69-.06-.15-.14-.29-.21-.45a872.78 872.78 0 0 0-10.1-21.1c-10.68 34.1-23.92 69.3-39.27 104.43 17.68 53.56 21.48 95.89 9.4 114.5l-.47.7c-.85 1.31-1.88 2.58-3.01 3.82-.44.5-.91.99-1.42 1.5-.57.57-1.19 1.13-1.81 1.69-.11.1-.22.21-.33.31-1.67 1.48-3.52 2.9-5.55 4.31-.05.04-.09.05-.13.09-1.39.94-2.92 1.86-4.47 2.79-.4.22-.78.45-1.19.68-1.51.85-3.1 1.67-4.76 2.48-.54.26-1.09.52-1.64.78-1.67.78-3.37 1.55-5.17 2.31-.59.25-1.23.47-1.83.71-1.88.75-3.77 1.5-5.78 2.22-.07.03-.14.04-.21.06-3.9 1.4-8.11 2.67-12.48 3.9-1.36.38-2.69.79-4.1 1.14-1.5.39-3.08.75-4.62 1.13-1.85.46-3.71.89-5.63 1.33-1.39.29-2.83.58-4.26.88-2.3.47-4.62.92-6.99 1.36-1.21.22-2.42.43-3.65.66-3.02.52-6.1 1-9.23 1.45-.69.11-1.36.21-2.05.32-16.72 2.37-35.18 3.95-55.02 4.64h-.03c-5 .17-10.11.27-15.3.33 9.78-11.52 19.46-23.36 29-35.54 99.2-130.5 150.41-302.65 158.78-417.36 12.43 3.67 24.53 7.68 36.02 12.24.67-45.02-7.38-80.43-25.51-100.2-27.24-30.75-93.31-41.87-176.7-35.65-.82.07-1.66.14-2.49.2-4.83.38-9.71.81-14.66 1.31-1.39.14-2.78.27-4.16.42-4.85.51-9.73 1.06-14.66 1.7-1.12.13-2.23.26-3.36.41-5.88.77-11.82 1.61-17.82 2.52-1.68.25-3.39.55-5.08.83-4.26.68-8.55 1.39-12.86 2.14-2.49.43-5 .88-7.51 1.35-3.61.67-7.24 1.35-10.89 2.07-1.65.32-3.26.6-4.91.92.02.02.04.03.05.04-45.12 9.08-92.42 21.98-139.52 38.57-5.09 1.41-10.2 2.88-15.39 4.55C220.46 216.74 89.06 295.46 33.81 365.71c-.15.18-.29.37-.43.54-10.81 13.84-18.64 27.32-23.06 40.18-.05.14-.09.27-.14.41a80.286 80.286 0 0 0-2.52 9.11c-.04.15-.07.3-.09.46-.74 3.56-1.31 7.11-1.46 10.57-2.49 41.18 36.76 96.12 100.67 150.94-1.38-8.62-2.04-17.3-2.08-25.98 53.57 40.22 125.01 80.74 204.25 114.48 27.02 11.04 54.92 20.17 83.16 27.73.01.05.02.09.03.12 3.66.98 7.32 1.87 10.99 2.82 1.35.32 2.69.67 4.03 1.02-5.01-1.24-10.02-2.51-15.02-3.84 4.83 17.46 11.87 33.93 20.79 49.28 14.8 3.85 29.63 7.18 44.43 10.09-47.26 31.02-87.23 45.66-108.35 38.81l-.82-.26c-18.42-5.96-38.84-33.58-57.05-75.59-27.94-7.8-54.59-16.68-79.75-26.22-4.32-1.33-8.59-2.61-12.83-3.92 29.13 103.56 72.6 180.46 119.18 196.33 44.61 13.17 126.58-36.1 211.41-118.67 149.66 14.62 282.26-16.77 311.72-65 4.08-6.71 7.09-14.71 9.23-23.57-1.87 1.55-3.95 3.08-6.15 4.57 2.21-1.5 4.28-3.03 6.15-4.57v-.02c.22-.18.51-.35.71-.53 12.35-49.74-6.96-132.33-48.49-222.78zm21.56 238.85c2.68-1.2 5.25-2.44 7.69-3.67-5.97 3.04-12.71 5.96-20.11 8.72 2.65-.99 5.19-2.01 7.66-3.03 1.62-.68 3.22-1.34 4.76-2.02zm-29.71 10.84c1.33-.41 2.59-.82 3.88-1.24 2.95-.92 5.82-1.86 8.6-2.83-7.9 2.77-16.47 5.36-25.7 7.74 4.57-1.19 8.98-2.4 13.22-3.67zm-17.1 4.61c.71-.18 1.43-.35 2.15-.54-4.81 1.22-9.83 2.38-14.98 3.5.36-.09.72-.16 1.08-.23 4.01-.88 7.94-1.78 11.75-2.73zm-15.78 3.61c-11.36 2.37-23.47 4.45-36.2 6.22l2.29-.3c11.91-1.73 23.24-3.7 33.91-5.92zm-54.7 8.56c6.09-.68 12.05-1.43 17.88-2.24-5.95.84-12.04 1.6-18.26 2.3.12-.03.26-.04.38-.06zm-.66.09c-13.33 1.46-27.27 2.6-41.66 3.37 14.4-.78 28.33-1.91 41.66-3.37zM209.67 561.33c-40.55-29.85-71.65-59.74-89.89-85.16-1.31-1.81-2.57-3.62-3.74-5.41-.33-.47-.61-.93-.91-1.42-3.27-5.05-5.94-9.87-8.06-14.48-.46-1.01-.94-2.01-1.34-3.01-.42-1.01-.77-1.98-1.12-2.97-.39-1.1-.76-2.19-1.07-3.26-.26-.86-.5-1.72-.7-2.56-.3-1.2-.52-2.37-.7-3.53-.11-.67-.24-1.35-.31-2-.19-1.78-.28-3.51-.19-5.15l.03-.85c.08-1.46.3-2.97.61-4.51.09-.48.22-.97.34-1.46.27-1.13.6-2.28.98-3.43.18-.54.33-1.05.53-1.59.58-1.58 1.24-3.2 2.02-4.84.21-.44.48-.92.7-1.36.62-1.24 1.3-2.52 2.04-3.8.44-.76.91-1.54 1.38-2.31.63-1.01 1.3-2.04 1.99-3.07.56-.84 1.11-1.68 1.71-2.52.84-1.19 1.75-2.38 2.67-3.59 1.15-1.5 2.36-3.02 3.63-4.56.62-.76 1.24-1.51 1.9-2.28 1.04-1.19 2.1-2.41 3.2-3.63.53-.58 1.09-1.18 1.64-1.78 4.17-4.49 8.8-9.1 13.9-13.77.19-.17.38-.35.56-.51 1.83-1.67 3.7-3.35 5.64-5.04.02-.02.04-.04.05-.04 4.01-3.48 8.26-7 12.72-10.56v-.02c12.59-9.99 26.92-20.17 42.82-30.29 180.77-86.1 293.65-111.07 381.22-133.42 10.27-1.15 20.14-1.96 29.64-2.5.01 0 .03.02.04.03 21.09-1.21 40.14-.95 56.51.74.07 0 .14 0 .21.02 2.67.26 5.26.58 7.79.92.08.01.15.03.23.04 7.59 1.06 14.49 2.45 20.65 4.18.07.02.14.03.22.04 1.42.41 2.74.86 4.07 1.29.84.26 1.68.53 2.49.82 1.11.4 2.16.82 3.21 1.23.93.38 1.85.76 2.73 1.15.89.41 1.76.81 2.6 1.25.94.47 1.83.96 2.7 1.44.7.41 1.42.82 2.08 1.24.94.61 1.81 1.23 2.65 1.86.49.36 1.01.71 1.47 1.09 1.25 1.04 2.41 2.11 3.42 3.23l.59.64c1.29 1.42 2.49 3.08 3.6 4.92 0 .02.01.04.02.04 1.1 1.81 2.1 3.82 3.03 5.98 12.15 28.5 9.01 87.44-9.74 158.72-70.77 185.93-112.33 232.51-182.33 300.7-185.58-23.65-224.76-58.04-332.13-120.89zm296.97 155.1c-24.16-3.01-48.57-7.03-72.93-12.22 7.07 1.5 14.14 2.89 21.22 4.21a874.835 874.835 0 0 0 51.68 7.98c.01.01.03.01.03.03zm-98.53-18.05c7.6 1.87 15.24 3.63 22.88 5.29.6.11 1.2.25 1.79.36-8.24-1.76-16.46-3.64-24.67-5.65zm161.87 23.68c16.17.87 32.05 1.29 47.57 1.31h.63c15.26 0 30.13-.39 44.55-1.15-29.26 1.53-60.45 1.58-92.75-.16zm263.54-35.72c.69-.36 1.4-.75 2.07-1.11 1.66-.92 3.23-1.85 4.75-2.78.32-.21.62-.4.94-.6-2.41 1.53-5 3.03-7.76 4.49z" /><path fill="#424242" d="M790.71 427.81c-10.68 34.1-23.92 69.3-39.27 104.43 17.68 53.56 21.48 95.89 9.4 114.5l-.47.7c-15.79 24.37-79.69 40.59-164.69 40.95-180.16-18.44-242.5-43.36-315.58-85.38-17.06-9.83-34.81-20.58-54.69-32.39-5.11-3.04-10.32-6.11-15.74-9.3-33.04-24.34-59.84-48.7-78.52-70.67v.02c-19.64-23.1-30.29-43.51-29.51-58.29l.03-.85c1-19.33 22.37-46.2 58.22-74.66.41-34.04 2.51-66.91 6.16-97.82C72.15 314.66 8.26 377.53 6.11 426.99 2.42 488.08 90.37 579.32 214.6 655.68c.11.06.22.14.33.21a1046.7 1046.7 0 0 0 19.3 11.54c.67.4 1.33.78 2.01 1.18 6.71 3.91 13.51 7.77 20.39 11.58.28.15.57.29.84.45 6.24 3.44 12.54 6.82 18.9 10.14 1.48.78 2.96 1.57 4.45 2.32 6.72 3.48 13.47 6.94 20.32 10.3.87.41 1.77.78 2.65 1.2 217.73 101.4 494.12 61.99 537.08-5.45 31.01-46.93 7.68-154.64-50.16-271.34z" /><path fill="#3299BB" d="M349.01 792.47l-.82-.26c-27.64-8.96-59.79-66.47-82.19-148.5C228.73 412.44 252.93 368.8 288.86 238c30.65-78.44 68.33-131.72 96.57-137.76l.84-.15c18.94-4.06 50.43 9.64 87.18 36.89 33.02-8.41 65.29-14.87 96.09-19.37C491.51 41.28 414.25-4.16 365.91 6.56 292.78 21.5 211.62 179.73 175.28 363.11c-42.99 237.33 62.34 495.95 143.79 520.23 53.9 16.09 151.37-32.59 249.15-118.67-35.73-1.48-73.14-5.16-111.07-10.91-47.15 30.96-87.06 45.56-108.14 38.71z" /><path fill="#3299BB" d="M367.33 6.35c-63.05 15.19-128.35 171.74-154.3 354.75-28.93 227.71 64.46 479.21 131.93 525.61 55.88-1.05 139.62-48.39 223.26-122.05-35.73-1.48-73.14-5.16-111.07-10.91-47.15 30.96-87.06 45.56-108.14 38.71l-.82-.26c-27.64-8.96-59.79-66.47-82.19-148.5-37.27-231.26-13.07-274.9 22.86-405.7 30.65-78.44 68.33-131.72 96.57-137.76l.84-.15c18.94-4.06 50.43 9.64 87.18 36.89 28.11-7.14 55.63-12.83 82.21-17.13 4.39-1.03 8.76-2.03 13.06-3.01C491.69 41.7 415.59-3.2 367.33 6.35z" /><path fill="#F90" d="M529.66 796.72a909.176 909.176 0 0 0 38.56-32.05c-35.73-1.48-73.14-5.16-111.07-10.91-47.15 30.96-87.06 45.56-108.14 38.71l-.82-.26c-4.82-1.57-9.75-4.67-14.76-9.01 23.03 25.1 65.06 73.86 196.23 13.52z" /><path fill="#424242" d="M568.72 116.84c-.12-.11-.25-.24-.37-.35-32.61-29.25-85.98-42.42-141.59-30.58a193.54 193.54 0 0 0-44.67 15.37c1.12-.37 2.24-.8 3.35-1.05l.84-.15c18.94-4.06 50.43 9.64 87.18 36.89 28.11-7.14 55.63-12.83 82.21-17.13 4.37-1.02 8.74-2.02 13.05-3z" /></svg></svg></g><rect width="162" height="167.87815856933594" transform="translate(-6, -6)" style="pointer-events:none;" fill="url(#01f21463-3b39-4625-80d7-1b4cfd64c521)" /></g><g transform="translate(0,57.909080505371094)"><g class="tp-name" fill="url(#63251639-935e-4c51-bb82-32f5e1f08e0b)"><g transform="scale(1)"><g><path d="M9.92 5.65Q9.96 8.24 6.41 8.24 2.87 8.24 2.87 5.65L2.87 5.65 2.87-22.66 8.64-22.66 9.16-20.47Q12.38-23.22 15.65-23.22L15.65-23.22Q19.71-23.22 22.1-20.07L22.1-20.07Q24.49-16.96 24.49-11.55 24.49-6.13 21.66-2.79 18.84 0.56 14.97 0.56L14.97 0.56Q12.07 0.56 9.72-1.79L9.72-1.79 9.92 5.65ZM9.96-15.53L9.96-6.57Q11.43-5.26 13.22-5.26L13.22-5.26Q15.05-5.26 16.13-6.81 17.2-8.36 17.2-11.59L17.2-11.59Q17.2-17.44 13.54-17.44L13.54-17.44Q11.71-17.44 9.96-15.53L9.96-15.53ZM46.71-2.69Q43.45 0.56 38.91 0.56 34.37 0.56 31.08-2.69 27.8-5.93 27.8-11.33 27.8-16.73 31.08-19.97 34.37-23.22 38.91-23.22 43.45-23.22 46.71-19.97 49.98-16.73 49.98-11.33 49.98-5.93 46.71-2.69ZM35.04-11.33Q35.04-5.18 38.89-5.18 42.73-5.18 42.73-11.33 42.73-17.48 38.89-17.48 35.04-17.48 35.04-11.33ZM61.53-2.59Q61.53 0 57.98 0 54.44 0 54.44-2.59L54.44-2.59 54.44-22.66 60.21-22.66 60.73-18.72Q62.04-20.91 63.76-22.06L63.76-22.06Q65.51-23.22 67.5-23.14L67.5-23.14Q70.05-22.74 69.45-19.67L69.45-19.67Q68.89-16.65 66.19-17L66.19-17Q64.99-17 63.64-16.01L63.64-16.01Q62.32-15.01 61.53-12.94L61.53-12.94 61.53-2.59ZM84.38 0.12L84.38 0.12Q81.84 0.56 79.25 0.48L79.25 0.48Q77.73 0.56 75.78-1.79L75.78-1.79Q73.83-4.18 73.83-8.4L73.83-8.4 73.83-17.12 73.35-17.12Q70.77-17.12 70.77-19.71L70.77-19.71 70.77-19.79Q70.77-22.38 73.35-22.58L73.35-22.58 74.27-22.66 75.07-28.67 80.92-28.67 80.92-22.66 86.26-22.66 86.26-19.71Q86.26-17.12 83.67-17.12L83.67-17.12 80.92-17.12 80.92-8.48Q80.92-4.98 83.79-4.98L83.79-4.98Q84.62-4.98 85.86-5.42L85.86-5.42 86.46-2.79Q86.97-0.28 84.38 0.12ZM103.06-2.27L102.86-2.27Q99.72 0.56 96.49 0.56L96.49 0.56Q93.31 0.56 91.47-1.39L91.47-1.39Q89.64-3.38 89.64-6.33L89.64-6.33Q89.64-9.96 92.63-11.95 95.62-13.94 102.23-14.65L102.23-14.65Q101.99-17.56 98.8-17.56L98.8-17.56Q96.41-17.56 95.3-16.49L95.3-16.49Q92.87-15.57 91.63-17.88L91.63-17.88Q90.4-20.23 92.67-21.42L92.67-21.42Q95.38-23.22 100.15-23.22L100.15-23.22Q109.31-23.22 109.31-12.86L109.31-12.86 109.31-2.59Q109.31 0 106.41 0L106.41 0Q103.54 0 103.06-2.27L103.06-2.27ZM98.8-4.94L98.8-4.94Q100.55-4.94 102.23-6.73L102.23-6.73 102.23-10.35Q96.37-9.6 96.37-6.89L96.37-6.89Q96.37-4.94 98.8-4.94ZM126.88 0.56L126.88 0.56Q123.73 0.56 120.86-2.43L120.86-2.43Q120.31 0 117.52 0L117.52 0Q114.77 0 114.77-2.59L114.77-2.59 114.77-31.82 121.86-31.82 121.66-20.79Q124.33-23.22 127.51-23.22L127.51-23.22Q131.58-23.22 133.96-20.07L133.96-20.07Q136.39-16.96 136.39-11.55 136.39-6.13 133.57-2.79 130.74 0.56 126.88 0.56ZM121.86-15.53L121.86-6.57Q123.29-5.26 125.12-5.26 126.96-5.26 128.03-6.81 129.11-8.36 129.11-11.59L129.11-11.59Q129.11-17.44 125.44-17.44L125.44-17.44Q123.61-17.44 121.86-15.53L121.86-15.53ZM148.38 0.36L147.42 0.56Q143.96 0.56 142.45-1.51L142.45-1.51Q140.97-3.58 140.97-7.37L140.97-7.37 140.97-31.82 148.06-31.82 148.06-7.13Q148.06-5.18 149.3-5.18L149.3-5.18Q149.69-5.18 150.09-5.26L150.09-5.26 150.53-2.59Q150.93-0.04 148.38 0.36L148.38 0.36ZM170.2-6.29L171.32-4.3Q172.55-2.03 170.36-0.64L170.36-0.64Q168.93 0.56 164.15 0.56L164.15 0.56Q159.41 0.56 156.15-2.63L156.15-2.63Q152.92-5.85 152.92-11.23L152.92-11.23Q152.92-16.65 156.15-19.91L156.15-19.91Q159.37-23.22 163.87-23.22 168.37-23.22 170.88-20.19 173.39-17.16 173.39-12.31L173.39-12.31 173.31-11.83Q173.07-9.24 170.48-9.24L170.48-9.24 159.77-9.24Q160.69-4.86 165.42-4.86L165.42-4.86Q167.73-4.86 170.2-6.29L170.2-6.29ZM161.12-16.81L159.97-14.58Q159.65-13.9 160.41-13.9L160.41-13.9 166.62-13.9Q167.38-13.9 167.3-14.62L167.3-14.62Q167.38-17.8 163.79-17.8L163.79-17.8Q162.24-17.8 161.12-16.81L161.12-16.81Z" transform="translate(-2.869999885559082, 31.81999969482422)" /></g></g></g></g></g></g><mask id="00db45f0-363d-4cac-886b-a37edb7d64a8"><g fill="white"><g><rect fill-opacity="1" stroke-width="2" x="0" y="0" width="150" height="155.87816562574693" class="image-rect" /><svg x="0" y="0" width="150" height="155.87816562574693" class="image-svg-svg primary"><svg xmlns="http://www.w3.org/2000/svg" viewBox="5.998107433319092 5.001715660095215 848.6570434570312 881.9102783203125"><path d="M717.37 303.14c-2.68-4.59-5.44-9.17-8.42-13.76C598.51 119.18 444.24-10.81 365.91 6.56c-22.46 4.59-45.68 22.74-68.15 50.97 45.48 1.57 90.96 20.34 132.88 52.7 23.9 11.64 52.71 32.34 83.19 60.29 36.91 29.37 159.56 168.27 227.52 333.7 26.13 66.68 33.61 120.77 19.5 142.54l-.47.7c-15.26 23.52-75.35 39.42-155.95 40.82-7.23 27.37-16.69 52.8-28.21 75.79 128.54 4.73 234.69-17.88 264.65-64.91 41.97-63.5-15.5-238.22-123.5-396.02z" /><linearGradient id="a15faca58-17ae-4510-9ebf-bd9bb74b2989" gradientUnits="userSpaceOnUse" x1="3970.418" y1="-3019.659" x2="3817.503" y2="-2994.173" gradientTransform="rotate(-87.025 4164.292 378.38)"><stop offset="0" stop-color="#f0584b" /><stop offset="1" stop-color="#c73f3d" /></linearGradient><path d="M811.7 473.34a874.041 874.041 0 0 0-20.99-45.53c-10.68 34.1-23.92 69.3-39.27 104.43 17.68 53.56 21.48 95.89 9.4 114.5l-.47.7c-2.74 4.25-7.04 8.2-12.53 11.92 30.22-15.76 88.19-43.71 63.86-186.02z" /><path d="M726.65 211.21l.59.64c19.44 21.55 18.52 87.45-3.09 169.66C640.79 600.47 598 626.17 501.5 721.49c-65.78 52.61-125.03 79.91-152.49 70.99l-.82-.26c-18.42-5.96-38.84-33.58-57.05-75.59-32.8-9.19-63.99-19.74-92.9-31.24 29.41 105.11 73.59 183.07 120.83 197.95 70.79 23.66 220.19-72.78 343.35-213.42 155.9-184.06 194.81-458.38 135.59-522.45-38.18-41.3-147.38-47.46-275.1-21.8 30.2 19.16 60.76 41.03 90.72 64.99 56.31-3.22 98.18 4.08 113.02 20.55z" /><linearGradient id="b77010bb7-f5cf-402f-91bb-ae336e7ecfce" gradientUnits="userSpaceOnUse" x1="3593.722" y1="-2976.62" x2="4073.848" y2="-2976.62" gradientTransform="rotate(-87.025 4164.292 378.38)"><stop offset="0" stop-color="#fcba39" /><stop offset="1" stop-color="#d96d2d" /></linearGradient><path d="M801.36 450.07c-.22-.47-.44-.93-.65-1.39.11.21.18.46.32.69.1.23.22.47.33.7z" /><linearGradient id="c4104f108-6890-428e-9a08-033082ea31d5" gradientUnits="userSpaceOnUse" x1="3592.972" y1="-2965.878" x2="4073.845" y2="-2965.878" gradientTransform="rotate(-87.025 4164.292 378.38)"><stop offset="0" stop-color="#fcba39" /><stop offset="1" stop-color="#d96d2d" /></linearGradient><path d="M810.83 471.37c-.11-.24-.22-.51-.34-.76.1.22.18.43.28.63.02.07.05.1.06.13z" /><radialGradient id="df17ca2dc-94b0-4893-bd0a-ba1d9cd7d33d" cx="3854.802" cy="-3342.029" r="341.002" gradientTransform="rotate(-87.025 4164.292 378.38)"><stop offset="0" stop-color="#f9b314" /><stop offset="1" stop-color="#ec5222" /></radialGradient><path d="M810.49 470.61a770.91 770.91 0 0 0-7.43-16.76c1.48 3.25 2.88 6.47 4.31 9.7 1.02 2.34 2.13 4.75 3.12 7.06z" /><radialGradient id="e2f8bc5d5-8e4d-443d-b9e2-db3bb98642fb" cx="3854.861" cy="-3342.198" r="341.148" gradientTransform="rotate(-87.025 4164.292 378.38)"><stop offset="0" stop-color="#f9b314" /><stop offset="1" stop-color="#ec5222" /></radialGradient><path d="M811.74 473.58c34.91 82.33 49.54 155.84 38.37 202 .23-.18.51-.35.71-.54 11.38-45.85-4.14-119.55-39.1-201.58.01.04.02.08.02.12z" /><radialGradient id="f2268d93f-a30f-4cf0-9429-09b4e5df1086" cx="3854.882" cy="-3342.126" r="341.078" gradientTransform="rotate(-87.025 4164.292 378.38)"><stop offset="0" stop-color="#f9b314" /><stop offset="1" stop-color="#ec5222" /></radialGradient><path d="M790.71 427.81c3.47 6.98 6.77 13.94 10 20.86-3.23-6.92-6.53-13.87-10-20.86z" /><linearGradient id="gf872c43c-8890-4771-b971-41b57220f59c" gradientUnits="userSpaceOnUse" x1="3589.765" y1="-2967.653" x2="4075.715" y2="-2967.653" gradientTransform="rotate(-87.025 4164.292 378.38)"><stop offset="0" stop-color="#fcba39" /><stop offset="1" stop-color="#d96d2d" /></linearGradient><path d="M810.78 471.25c-.1-.2-.18-.41-.28-.63-1-2.31-2.11-4.72-3.12-7.05 1.13 2.57 2.31 5.14 3.4 7.68z" /><radialGradient id="h9a56dcd4-5d3c-4940-b934-a20c0efac808" cx="3854.906" cy="-3341.698" r="340.698" gradientTransform="rotate(-87.025 4164.292 378.38)"><stop offset="0" stop-color="#f9b314" /><stop offset="1" stop-color="#ec5222" /></radialGradient><path d="M810.78 471.25c-.1-.2-.18-.41-.28-.63-1-2.31-2.11-4.72-3.12-7.05 1.13 2.57 2.31 5.14 3.4 7.68z" /><linearGradient id="i1f09dce8-9984-4e99-9003-7970bf9d2193" gradientUnits="userSpaceOnUse" x1="3589.413" y1="-3008.344" x2="4075.959" y2="-3008.344" gradientTransform="rotate(-87.025 4164.292 378.38)"><stop offset="0" stop-color="#fcba39" /><stop offset="1" stop-color="#d96d2d" /></linearGradient><path d="M757.37 651.26c1.13-1.24 2.16-2.51 3.01-3.82-.85 1.32-1.89 2.57-3.01 3.82z" /><radialGradient id="jafbf7637-e5cd-4d01-970a-b8551172c85a" cx="3854.88" cy="-3342.837" r="341.716" gradientTransform="rotate(-87.025 4164.292 378.38)"><stop offset="0" stop-color="#f9b314" /><stop offset="1" stop-color="#ec5222" /></radialGradient><path d="M757.37 651.26c1.13-1.24 2.16-2.51 3.01-3.82-.85 1.32-1.89 2.57-3.01 3.82z" /><linearGradient id="k262e2e28-d159-4af0-940b-20f6cd13d6a1" gradientUnits="userSpaceOnUse" x1="3589.43" y1="-3147.678" x2="4075.905" y2="-3147.678" gradientTransform="rotate(-87.025 4164.292 378.38)"><stop offset="0" stop-color="#fcba39" /><stop offset="1" stop-color="#d96d2d" /></linearGradient><path d="M811.74 473.58c24.21 142.09-33.69 170.02-63.89 185.79.12-.07.21-.15.31-.25-26.04 17.72-81.94 28.96-152.48 29.27-98.4-10.07-161.58-22.06-210.65-37.73.61 10.49 1.9 21.02 4.15 31.55.86 4.06 1.87 8.09 2.96 12.07 193.16 51.92 402.61 27.34 457.97-18.71 11.17-46.15-3.46-119.66-38.37-201.99z" /><linearGradient id="l56b05569-248a-45fa-8828-1b4e8fda00e7" gradientUnits="userSpaceOnUse" x1="3590.375" y1="-3012.132" x2="4073.043" y2="-3012.132" gradientTransform="rotate(-87.025 4164.292 378.38)"><stop offset="0" stop-color="#fcba39" /><stop offset="1" stop-color="#d96d2d" /></linearGradient><path d="M753.81 654.76c.72-.66 1.42-1.29 2.08-1.93-.65.63-1.36 1.27-2.08 1.93z" /><radialGradient id="m80bc7386-f4fa-4fb3-85a4-99ef1ba30cba" cx="3853.725" cy="-3339.369" r="338.259" gradientTransform="rotate(-87.025 4164.292 378.38)"><stop offset="0" stop-color="#f9b314" /><stop offset="1" stop-color="#ec5222" /></radialGradient><path d="M753.81 654.76c.72-.66 1.42-1.29 2.08-1.93-.65.63-1.36 1.27-2.08 1.93z" /><linearGradient id="n4d7473a2-37f8-4605-804f-85fbbfde4375" gradientUnits="userSpaceOnUse" x1="3589.706" y1="-2982.336" x2="4075.76" y2="-2982.336" gradientTransform="rotate(-87.025 4164.292 378.38)"><stop offset="0" stop-color="#fcba39" /><stop offset="1" stop-color="#d96d2d" /></linearGradient><path d="M800.71 448.68c-3.22-6.92-6.53-13.88-10-20.86 3.58 7.23 7 14.42 10.31 21.55-.13-.24-.21-.48-.31-.69z" /><radialGradient id="od0959cc5-c089-4746-a6cb-1dab9912f9a1" cx="3854.904" cy="-3342.443" r="341.362" gradientTransform="rotate(-87.025 4164.292 378.38)"><stop offset="0" stop-color="#f9b314" /><stop offset="1" stop-color="#ec5222" /></radialGradient><path d="M800.71 448.68c-3.22-6.92-6.53-13.88-10-20.86 3.58 7.23 7 14.42 10.31 21.55-.13-.24-.21-.48-.31-.69z" /><linearGradient id="p9f55e614-d6f3-4727-a2ac-e50cc41397b4" gradientUnits="userSpaceOnUse" x1="3976.866" y1="-2978.614" x2="3824.7" y2="-2953.253" gradientTransform="rotate(-87.025 4164.292 378.38)"><stop offset="0" stop-color="#f0584b" /><stop offset="1" stop-color="#c73f3d" /></linearGradient><path d="M811.72 473.46c-.02-.04-.02-.07-.02-.11-.28-.67-.6-1.31-.87-1.97.03.06.04.1.04.16.29.65.57 1.26.85 1.92z" /><linearGradient id="q5cb9c557-5e60-42f7-b1e1-187b8478fcae" gradientUnits="userSpaceOnUse" x1="3976.15" y1="-2985.288" x2="3823.262" y2="-2959.807" gradientTransform="rotate(-87.025 4164.292 378.38)"><stop offset="0" stop-color="#f0584b" /><stop offset="1" stop-color="#c73f3d" /></linearGradient><path d="M803.06 453.86c-.58-1.26-1.12-2.5-1.71-3.79.32.67.59 1.33.89 1.99.28.6.55 1.2.82 1.8z" /><linearGradient id="ra6d0533b-ce56-4764-99ea-bc20d6fd44ea" gradientUnits="userSpaceOnUse" x1="3963.472" y1="-3058.251" x2="3810.856" y2="-3032.815" gradientTransform="rotate(-87.025 4164.292 378.38)"><stop offset="0" stop-color="#f0584b" /><stop offset="1" stop-color="#c73f3d" /></linearGradient><path d="M748.16 659.12c2.08-1.4 3.95-2.87 5.65-4.36-1.72 1.49-3.57 2.96-5.65 4.36z" /><linearGradient id="s1eefe0e9-a2a7-4fc3-aab4-82e3f403839c" gradientUnits="userSpaceOnUse" x1="3967.854" y1="-3052.74" x2="3813.184" y2="-3026.961" gradientTransform="rotate(-87.025 4164.292 378.38)"><stop offset="0" stop-color="#f0584b" /><stop offset="1" stop-color="#c73f3d" /></linearGradient><path d="M755.89 652.83c.53-.53 1.02-1.05 1.48-1.57-.47.52-.95 1.04-1.48 1.57z" /><linearGradient id="t4c082e81-1db0-4c65-a6c7-7f4dcea869f6" gradientUnits="userSpaceOnUse" x1="3589.334" y1="-2975.949" x2="4075.937" y2="-2975.949" gradientTransform="rotate(-87.025 4164.292 378.38)"><stop offset="0" stop-color="#fcba39" /><stop offset="1" stop-color="#d96d2d" /></linearGradient><path d="M802.24 452.06c-.3-.66-.57-1.32-.89-1.99-.11-.23-.22-.47-.33-.7.42.89.8 1.79 1.22 2.69z" /><linearGradient id="uef25282d-9b33-47cf-91e2-2271c3afbd52" gradientUnits="userSpaceOnUse" x1="3975.994" y1="-2985.697" x2="3823.288" y2="-2960.246" gradientTransform="rotate(-87.025 4164.292 378.38)"><stop offset="0" stop-color="#f0584b" /><stop offset="1" stop-color="#c73f3d" /></linearGradient><path d="M802.24 452.06c-.3-.66-.57-1.32-.89-1.99-.11-.23-.22-.47-.33-.7.42.89.8 1.79 1.22 2.69z" /><linearGradient id="v02933143-f468-49d3-8e96-51347abf81e8" gradientUnits="userSpaceOnUse" x1="3574.008" y1="-2965.695" x2="4084.842" y2="-2965.695" gradientTransform="rotate(-87.025 4164.292 378.38)"><stop offset="0" stop-color="#fcba39" /><stop offset="1" stop-color="#d96d2d" /></linearGradient><path d="M810.88 471.53c0-.06-.02-.1-.04-.16-.02-.04-.04-.06-.06-.12.04.09.08.18.1.28z" /><linearGradient id="wc016fafd-0b7b-4830-a6b6-bd4cebe185af" gradientUnits="userSpaceOnUse" x1="3981.321" y1="-2979.692" x2="3820.509" y2="-2952.891" gradientTransform="rotate(-87.025 4164.292 378.38)"><stop offset="0" stop-color="#f0584b" /><stop offset="1" stop-color="#c73f3d" /></linearGradient><path d="M810.88 471.53c0-.06-.02-.1-.04-.16-.02-.04-.04-.06-.06-.12.04.09.08.18.1.28z" /><radialGradient id="xfec54907-1f19-4c72-abdf-8c298a06c7df" cx="3854.867" cy="-3342.347" r="341.283" gradientTransform="rotate(-87.025 4164.292 378.38)"><stop offset="0" stop-color="#f9b314" /><stop offset="1" stop-color="#ec5222" /></radialGradient><path d="M807.37 463.56c-1.43-3.23-2.83-6.45-4.31-9.7-.27-.6-.54-1.2-.82-1.8 1.77 3.86 3.44 7.67 5.13 11.5z" /><linearGradient id="y8e160249-dbae-45c2-bf41-fc29a61ed40c" gradientUnits="userSpaceOnUse" x1="3976.434" y1="-2983.386" x2="3823.592" y2="-2957.913" gradientTransform="rotate(-87.025 4164.292 378.38)"><stop offset="0" stop-color="#f0584b" /><stop offset="1" stop-color="#c73f3d" /></linearGradient><path d="M807.37 463.56c-1.43-3.23-2.83-6.45-4.31-9.7-.27-.6-.54-1.2-.82-1.8 1.77 3.86 3.44 7.67 5.13 11.5z" /><radialGradient id="z0a5494fe-7907-43a9-b646-d1c59cbe52a0" cx="3855.067" cy="-3347.97" r="346.281" gradientTransform="rotate(-87.025 4164.292 378.38)"><stop offset="0" stop-color="#f9b314" /><stop offset="1" stop-color="#ec5222" /></radialGradient><path d="M811.74 473.58c0-.04-.01-.08-.02-.12-.28-.66-.56-1.27-.84-1.93.3.68.55 1.35.86 2.05z" /><linearGradient id="Acd98ae6e-bb6b-4c5b-953b-b7e2bc1018b3" gradientUnits="userSpaceOnUse" x1="3976.729" y1="-2978.575" x2="3824.803" y2="-2953.254" gradientTransform="rotate(-87.025 4164.292 378.38)"><stop offset="0" stop-color="#f0584b" /><stop offset="1" stop-color="#c73f3d" /></linearGradient><path d="M811.74 473.58c0-.04-.01-.08-.02-.12-.28-.66-.56-1.27-.84-1.93.3.68.55 1.35.86 2.05z" /><linearGradient id="B2b6c62b0-6514-4de4-8c4f-b869b4d90146" gradientUnits="userSpaceOnUse" x1="3589.423" y1="-2988.603" x2="4075.87" y2="-2988.603" gradientTransform="rotate(-87.025 4164.292 378.38)"><stop offset="0" stop-color="#fcba39" /><stop offset="1" stop-color="#d96d2d" /></linearGradient><path d="M811.74 473.58c-.31-.69-.56-1.37-.86-2.05-.02-.1-.06-.19-.1-.28-1.09-2.54-2.27-5.11-3.4-7.69-1.69-3.83-3.36-7.64-5.13-11.51-.42-.9-.81-1.79-1.22-2.69-3.31-7.13-6.74-14.32-10.31-21.55-10.68 34.1-23.92 69.3-39.27 104.43 17.68 53.56 21.48 95.89 9.4 114.5l-.47.7c-.85 1.31-1.88 2.58-3.01 3.82-.46.52-.95 1.04-1.48 1.57-.66.63-1.35 1.27-2.08 1.93-1.7 1.5-3.57 2.96-5.65 4.36-.1.1-.19.18-.31.25 30.19-15.77 88.1-43.7 63.89-185.79z" /><radialGradient id="Caf9b6b14-3a16-4007-b22a-48781c9272b6" cx="3854.838" cy="-3342.306" r="341.245" gradientTransform="rotate(-87.025 4164.292 378.38)"><stop offset="0" stop-color="#f9b314" /><stop offset="1" stop-color="#ec5222" /></radialGradient><path d="M811.74 473.58c-.31-.69-.56-1.37-.86-2.05-.02-.1-.06-.19-.1-.28-1.09-2.54-2.27-5.11-3.4-7.69-1.69-3.83-3.36-7.64-5.13-11.51-.42-.9-.81-1.79-1.22-2.69-3.31-7.13-6.74-14.32-10.31-21.55-10.68 34.1-23.92 69.3-39.27 104.43 17.68 53.56 21.48 95.89 9.4 114.5l-.47.7c-.85 1.31-1.88 2.58-3.01 3.82-.46.52-.95 1.04-1.48 1.57-.66.63-1.35 1.27-2.08 1.93-1.7 1.5-3.57 2.96-5.65 4.36-.1.1-.19.18-.31.25 30.19-15.77 88.1-43.7 63.89-185.79z" /><path d="M802.32 452.22c-.03-.05-.05-.11-.07-.17-.42-.9-.81-1.79-1.22-2.69-.06-.15-.14-.29-.21-.45a872.78 872.78 0 0 0-10.1-21.1c-10.68 34.1-23.92 69.3-39.27 104.43 17.68 53.56 21.48 95.89 9.4 114.5l-.47.7c-.85 1.31-1.88 2.58-3.01 3.82-.44.5-.91.99-1.42 1.5-.57.57-1.19 1.13-1.81 1.69-.11.1-.22.21-.33.31-1.67 1.48-3.52 2.9-5.55 4.31-.05.04-.09.05-.13.09-1.39.94-2.92 1.86-4.47 2.79-.4.22-.78.45-1.19.68-1.51.85-3.1 1.67-4.76 2.48-.54.26-1.09.52-1.64.78-1.67.78-3.37 1.55-5.17 2.31-.59.25-1.23.47-1.83.71-1.88.75-3.77 1.5-5.78 2.22-.07.03-.14.04-.21.06-3.9 1.4-8.11 2.67-12.48 3.9-1.36.38-2.69.79-4.1 1.14-1.5.39-3.08.75-4.62 1.13-1.85.46-3.71.89-5.63 1.33-1.39.29-2.83.58-4.26.88-2.3.47-4.62.92-6.99 1.36-1.21.22-2.42.43-3.65.66-3.02.52-6.1 1-9.23 1.45-.69.11-1.36.21-2.05.32-16.72 2.37-35.18 3.95-55.02 4.64h-.03c-5 .17-10.11.27-15.3.33 9.78-11.52 19.46-23.36 29-35.54 99.2-130.5 150.41-302.65 158.78-417.36 12.43 3.67 24.53 7.68 36.02 12.24.67-45.02-7.38-80.43-25.51-100.2-27.24-30.75-93.31-41.87-176.7-35.65-.82.07-1.66.14-2.49.2-4.83.38-9.71.81-14.66 1.31-1.39.14-2.78.27-4.16.42-4.85.51-9.73 1.06-14.66 1.7-1.12.13-2.23.26-3.36.41-5.88.77-11.82 1.61-17.82 2.52-1.68.25-3.39.55-5.08.83-4.26.68-8.55 1.39-12.86 2.14-2.49.43-5 .88-7.51 1.35-3.61.67-7.24 1.35-10.89 2.07-1.65.32-3.26.6-4.91.92.02.02.04.03.05.04-45.12 9.08-92.42 21.98-139.52 38.57-5.09 1.41-10.2 2.88-15.39 4.55C220.46 216.74 89.06 295.46 33.81 365.71c-.15.18-.29.37-.43.54-10.81 13.84-18.64 27.32-23.06 40.18-.05.14-.09.27-.14.41a80.286 80.286 0 0 0-2.52 9.11c-.04.15-.07.3-.09.46-.74 3.56-1.31 7.11-1.46 10.57-2.49 41.18 36.76 96.12 100.67 150.94-1.38-8.62-2.04-17.3-2.08-25.98 53.57 40.22 125.01 80.74 204.25 114.48 27.02 11.04 54.92 20.17 83.16 27.73.01.05.02.09.03.12 3.66.98 7.32 1.87 10.99 2.82 1.35.32 2.69.67 4.03 1.02-5.01-1.24-10.02-2.51-15.02-3.84 4.83 17.46 11.87 33.93 20.79 49.28 14.8 3.85 29.63 7.18 44.43 10.09-47.26 31.02-87.23 45.66-108.35 38.81l-.82-.26c-18.42-5.96-38.84-33.58-57.05-75.59-27.94-7.8-54.59-16.68-79.75-26.22-4.32-1.33-8.59-2.61-12.83-3.92 29.13 103.56 72.6 180.46 119.18 196.33 44.61 13.17 126.58-36.1 211.41-118.67 149.66 14.62 282.26-16.77 311.72-65 4.08-6.71 7.09-14.71 9.23-23.57-1.87 1.55-3.95 3.08-6.15 4.57 2.21-1.5 4.28-3.03 6.15-4.57v-.02c.22-.18.51-.35.71-.53 12.35-49.74-6.96-132.33-48.49-222.78zm21.56 238.85c2.68-1.2 5.25-2.44 7.69-3.67-5.97 3.04-12.71 5.96-20.11 8.72 2.65-.99 5.19-2.01 7.66-3.03 1.62-.68 3.22-1.34 4.76-2.02zm-29.71 10.84c1.33-.41 2.59-.82 3.88-1.24 2.95-.92 5.82-1.86 8.6-2.83-7.9 2.77-16.47 5.36-25.7 7.74 4.57-1.19 8.98-2.4 13.22-3.67zm-17.1 4.61c.71-.18 1.43-.35 2.15-.54-4.81 1.22-9.83 2.38-14.98 3.5.36-.09.72-.16 1.08-.23 4.01-.88 7.94-1.78 11.75-2.73zm-15.78 3.61c-11.36 2.37-23.47 4.45-36.2 6.22l2.29-.3c11.91-1.73 23.24-3.7 33.91-5.92zm-54.7 8.56c6.09-.68 12.05-1.43 17.88-2.24-5.95.84-12.04 1.6-18.26 2.3.12-.03.26-.04.38-.06zm-.66.09c-13.33 1.46-27.27 2.6-41.66 3.37 14.4-.78 28.33-1.91 41.66-3.37zM209.67 561.33c-40.55-29.85-71.65-59.74-89.89-85.16-1.31-1.81-2.57-3.62-3.74-5.41-.33-.47-.61-.93-.91-1.42-3.27-5.05-5.94-9.87-8.06-14.48-.46-1.01-.94-2.01-1.34-3.01-.42-1.01-.77-1.98-1.12-2.97-.39-1.1-.76-2.19-1.07-3.26-.26-.86-.5-1.72-.7-2.56-.3-1.2-.52-2.37-.7-3.53-.11-.67-.24-1.35-.31-2-.19-1.78-.28-3.51-.19-5.15l.03-.85c.08-1.46.3-2.97.61-4.51.09-.48.22-.97.34-1.46.27-1.13.6-2.28.98-3.43.18-.54.33-1.05.53-1.59.58-1.58 1.24-3.2 2.02-4.84.21-.44.48-.92.7-1.36.62-1.24 1.3-2.52 2.04-3.8.44-.76.91-1.54 1.38-2.31.63-1.01 1.3-2.04 1.99-3.07.56-.84 1.11-1.68 1.71-2.52.84-1.19 1.75-2.38 2.67-3.59 1.15-1.5 2.36-3.02 3.63-4.56.62-.76 1.24-1.51 1.9-2.28 1.04-1.19 2.1-2.41 3.2-3.63.53-.58 1.09-1.18 1.64-1.78 4.17-4.49 8.8-9.1 13.9-13.77.19-.17.38-.35.56-.51 1.83-1.67 3.7-3.35 5.64-5.04.02-.02.04-.04.05-.04 4.01-3.48 8.26-7 12.72-10.56v-.02c12.59-9.99 26.92-20.17 42.82-30.29 180.77-86.1 293.65-111.07 381.22-133.42 10.27-1.15 20.14-1.96 29.64-2.5.01 0 .03.02.04.03 21.09-1.21 40.14-.95 56.51.74.07 0 .14 0 .21.02 2.67.26 5.26.58 7.79.92.08.01.15.03.23.04 7.59 1.06 14.49 2.45 20.65 4.18.07.02.14.03.22.04 1.42.41 2.74.86 4.07 1.29.84.26 1.68.53 2.49.82 1.11.4 2.16.82 3.21 1.23.93.38 1.85.76 2.73 1.15.89.41 1.76.81 2.6 1.25.94.47 1.83.96 2.7 1.44.7.41 1.42.82 2.08 1.24.94.61 1.81 1.23 2.65 1.86.49.36 1.01.71 1.47 1.09 1.25 1.04 2.41 2.11 3.42 3.23l.59.64c1.29 1.42 2.49 3.08 3.6 4.92 0 .02.01.04.02.04 1.1 1.81 2.1 3.82 3.03 5.98 12.15 28.5 9.01 87.44-9.74 158.72-70.77 185.93-112.33 232.51-182.33 300.7-185.58-23.65-224.76-58.04-332.13-120.89zm296.97 155.1c-24.16-3.01-48.57-7.03-72.93-12.22 7.07 1.5 14.14 2.89 21.22 4.21a874.835 874.835 0 0 0 51.68 7.98c.01.01.03.01.03.03zm-98.53-18.05c7.6 1.87 15.24 3.63 22.88 5.29.6.11 1.2.25 1.79.36-8.24-1.76-16.46-3.64-24.67-5.65zm161.87 23.68c16.17.87 32.05 1.29 47.57 1.31h.63c15.26 0 30.13-.39 44.55-1.15-29.26 1.53-60.45 1.58-92.75-.16zm263.54-35.72c.69-.36 1.4-.75 2.07-1.11 1.66-.92 3.23-1.85 4.75-2.78.32-.21.62-.4.94-.6-2.41 1.53-5 3.03-7.76 4.49z" /><path d="M790.71 427.81c-10.68 34.1-23.92 69.3-39.27 104.43 17.68 53.56 21.48 95.89 9.4 114.5l-.47.7c-15.79 24.37-79.69 40.59-164.69 40.95-180.16-18.44-242.5-43.36-315.58-85.38-17.06-9.83-34.81-20.58-54.69-32.39-5.11-3.04-10.32-6.11-15.74-9.3-33.04-24.34-59.84-48.7-78.52-70.67v.02c-19.64-23.1-30.29-43.51-29.51-58.29l.03-.85c1-19.33 22.37-46.2 58.22-74.66.41-34.04 2.51-66.91 6.16-97.82C72.15 314.66 8.26 377.53 6.11 426.99 2.42 488.08 90.37 579.32 214.6 655.68c.11.06.22.14.33.21a1046.7 1046.7 0 0 0 19.3 11.54c.67.4 1.33.78 2.01 1.18 6.71 3.91 13.51 7.77 20.39 11.58.28.15.57.29.84.45 6.24 3.44 12.54 6.82 18.9 10.14 1.48.78 2.96 1.57 4.45 2.32 6.72 3.48 13.47 6.94 20.32 10.3.87.41 1.77.78 2.65 1.2 217.73 101.4 494.12 61.99 537.08-5.45 31.01-46.93 7.68-154.64-50.16-271.34z" /><path d="M349.01 792.47l-.82-.26c-27.64-8.96-59.79-66.47-82.19-148.5C228.73 412.44 252.93 368.8 288.86 238c30.65-78.44 68.33-131.72 96.57-137.76l.84-.15c18.94-4.06 50.43 9.64 87.18 36.89 33.02-8.41 65.29-14.87 96.09-19.37C491.51 41.28 414.25-4.16 365.91 6.56 292.78 21.5 211.62 179.73 175.28 363.11c-42.99 237.33 62.34 495.95 143.79 520.23 53.9 16.09 151.37-32.59 249.15-118.67-35.73-1.48-73.14-5.16-111.07-10.91-47.15 30.96-87.06 45.56-108.14 38.71z" /><path d="M367.33 6.35c-63.05 15.19-128.35 171.74-154.3 354.75-28.93 227.71 64.46 479.21 131.93 525.61 55.88-1.05 139.62-48.39 223.26-122.05-35.73-1.48-73.14-5.16-111.07-10.91-47.15 30.96-87.06 45.56-108.14 38.71l-.82-.26c-27.64-8.96-59.79-66.47-82.19-148.5-37.27-231.26-13.07-274.9 22.86-405.7 30.65-78.44 68.33-131.72 96.57-137.76l.84-.15c18.94-4.06 50.43 9.64 87.18 36.89 28.11-7.14 55.63-12.83 82.21-17.13 4.39-1.03 8.76-2.03 13.06-3.01C491.69 41.7 415.59-3.2 367.33 6.35z" /><path d="M529.66 796.72a909.176 909.176 0 0 0 38.56-32.05c-35.73-1.48-73.14-5.16-111.07-10.91-47.15 30.96-87.06 45.56-108.14 38.71l-.82-.26c-4.82-1.57-9.75-4.67-14.76-9.01 23.03 25.1 65.06 73.86 196.23 13.52z" /><path d="M568.72 116.84c-.12-.11-.25-.24-.37-.35-32.61-29.25-85.98-42.42-141.59-30.58a193.54 193.54 0 0 0-44.67 15.37c1.12-.37 2.24-.8 3.35-1.05l.84-.15c18.94-4.06 50.43 9.64 87.18 36.89 28.11-7.14 55.63-12.83 82.21-17.13 4.37-1.02 8.74-2.02 13.05-3z" /></svg></svg></g></g><g transform="translate(-10.260002136230469,57.909080505371094)"><rect fill="black" fill-opacity="1" x="-3.5" y="-3.5" width="177.52000427246094" height="47.05999755859375" /><rect fill="black" fill-opacity="1" x="-3.5" y="-3.5" /></g><g transform="translate(-10.260002136230469,57.909080505371094)" fill="black"><g class="tp-name"><g transform="scale(1)"><g><path d="M9.92 5.65Q9.96 8.24 6.41 8.24 2.87 8.24 2.87 5.65L2.87 5.65 2.87-22.66 8.64-22.66 9.16-20.47Q12.38-23.22 15.65-23.22L15.65-23.22Q19.71-23.22 22.1-20.07L22.1-20.07Q24.49-16.96 24.49-11.55 24.49-6.13 21.66-2.79 18.84 0.56 14.97 0.56L14.97 0.56Q12.07 0.56 9.72-1.79L9.72-1.79 9.92 5.65ZM9.96-15.53L9.96-6.57Q11.43-5.26 13.22-5.26L13.22-5.26Q15.05-5.26 16.13-6.81 17.2-8.36 17.2-11.59L17.2-11.59Q17.2-17.44 13.54-17.44L13.54-17.44Q11.71-17.44 9.96-15.53L9.96-15.53ZM46.71-2.69Q43.45 0.56 38.91 0.56 34.37 0.56 31.08-2.69 27.8-5.93 27.8-11.33 27.8-16.73 31.08-19.97 34.37-23.22 38.91-23.22 43.45-23.22 46.71-19.97 49.98-16.73 49.98-11.33 49.98-5.93 46.71-2.69ZM35.04-11.33Q35.04-5.18 38.89-5.18 42.73-5.18 42.73-11.33 42.73-17.48 38.89-17.48 35.04-17.48 35.04-11.33ZM61.53-2.59Q61.53 0 57.98 0 54.44 0 54.44-2.59L54.44-2.59 54.44-22.66 60.21-22.66 60.73-18.72Q62.04-20.91 63.76-22.06L63.76-22.06Q65.51-23.22 67.5-23.14L67.5-23.14Q70.05-22.74 69.45-19.67L69.45-19.67Q68.89-16.65 66.19-17L66.19-17Q64.99-17 63.64-16.01L63.64-16.01Q62.32-15.01 61.53-12.94L61.53-12.94 61.53-2.59ZM84.38 0.12L84.38 0.12Q81.84 0.56 79.25 0.48L79.25 0.48Q77.73 0.56 75.78-1.79L75.78-1.79Q73.83-4.18 73.83-8.4L73.83-8.4 73.83-17.12 73.35-17.12Q70.77-17.12 70.77-19.71L70.77-19.71 70.77-19.79Q70.77-22.38 73.35-22.58L73.35-22.58 74.27-22.66 75.07-28.67 80.92-28.67 80.92-22.66 86.26-22.66 86.26-19.71Q86.26-17.12 83.67-17.12L83.67-17.12 80.92-17.12 80.92-8.48Q80.92-4.98 83.79-4.98L83.79-4.98Q84.62-4.98 85.86-5.42L85.86-5.42 86.46-2.79Q86.97-0.28 84.38 0.12ZM103.06-2.27L102.86-2.27Q99.72 0.56 96.49 0.56L96.49 0.56Q93.31 0.56 91.47-1.39L91.47-1.39Q89.64-3.38 89.64-6.33L89.64-6.33Q89.64-9.96 92.63-11.95 95.62-13.94 102.23-14.65L102.23-14.65Q101.99-17.56 98.8-17.56L98.8-17.56Q96.41-17.56 95.3-16.49L95.3-16.49Q92.87-15.57 91.63-17.88L91.63-17.88Q90.4-20.23 92.67-21.42L92.67-21.42Q95.38-23.22 100.15-23.22L100.15-23.22Q109.31-23.22 109.31-12.86L109.31-12.86 109.31-2.59Q109.31 0 106.41 0L106.41 0Q103.54 0 103.06-2.27L103.06-2.27ZM98.8-4.94L98.8-4.94Q100.55-4.94 102.23-6.73L102.23-6.73 102.23-10.35Q96.37-9.6 96.37-6.89L96.37-6.89Q96.37-4.94 98.8-4.94ZM126.88 0.56L126.88 0.56Q123.73 0.56 120.86-2.43L120.86-2.43Q120.31 0 117.52 0L117.52 0Q114.77 0 114.77-2.59L114.77-2.59 114.77-31.82 121.86-31.82 121.66-20.79Q124.33-23.22 127.51-23.22L127.51-23.22Q131.58-23.22 133.96-20.07L133.96-20.07Q136.39-16.96 136.39-11.55 136.39-6.13 133.57-2.79 130.74 0.56 126.88 0.56ZM121.86-15.53L121.86-6.57Q123.29-5.26 125.12-5.26 126.96-5.26 128.03-6.81 129.11-8.36 129.11-11.59L129.11-11.59Q129.11-17.44 125.44-17.44L125.44-17.44Q123.61-17.44 121.86-15.53L121.86-15.53ZM148.38 0.36L147.42 0.56Q143.96 0.56 142.45-1.51L142.45-1.51Q140.97-3.58 140.97-7.37L140.97-7.37 140.97-31.82 148.06-31.82 148.06-7.13Q148.06-5.18 149.3-5.18L149.3-5.18Q149.69-5.18 150.09-5.26L150.09-5.26 150.53-2.59Q150.93-0.04 148.38 0.36L148.38 0.36ZM170.2-6.29L171.32-4.3Q172.55-2.03 170.36-0.64L170.36-0.64Q168.93 0.56 164.15 0.56L164.15 0.56Q159.41 0.56 156.15-2.63L156.15-2.63Q152.92-5.85 152.92-11.23L152.92-11.23Q152.92-16.65 156.15-19.91L156.15-19.91Q159.37-23.22 163.87-23.22 168.37-23.22 170.88-20.19 173.39-17.16 173.39-12.31L173.39-12.31 173.31-11.83Q173.07-9.24 170.48-9.24L170.48-9.24 159.77-9.24Q160.69-4.86 165.42-4.86L165.42-4.86Q167.73-4.86 170.2-6.29L170.2-6.29ZM161.12-16.81L159.97-14.58Q159.65-13.9 160.41-13.9L160.41-13.9 166.62-13.9Q167.38-13.9 167.3-14.62L167.3-14.62Q167.38-17.8 163.79-17.8L163.79-17.8Q162.24-17.8 161.12-16.81L161.12-16.81Z" transform="translate(-2.869999885559082, 31.81999969482422)" /></g></g></g></g></mask><defs><linearGradient x1="0" y1="1" x2="0" y2="0" id="63251639-935e-4c51-bb82-32f5e1f08e0b"><stop offset="0%" stop-color="#b722ff" /><stop offset="100%" stop-color="#22d4fe" /></linearGradient><filter id="42443b3f1de60f6b6fd3b6a9844b4764"><feColorMatrix values="0 0 0 0 0.99609375 0 0 0 0 0.99609375 0 0 0 0 0.99609375 0 0 0 1 0" /></filter></defs><defs><filter id="db575ef4-939f-4ce2-a989-9baeb4451150"><feColorMatrix values="0 0 0 0 0.99609375 0 0 0 0 0.99609375 0 0 0 0 0.99609375 0 0 0 1 0" /></filter><linearGradient x1="0" y1="1" x2="0" y2="0" id="01f21463-3b39-4625-80d7-1b4cfd64c521"><stop offset="0%" stop-color="#b722ff" /><stop offset="100%" stop-color="#22d4fe" /></linearGradient><filter id="42443b3f1de60f6b6fd3b6a9844b4764"><feColorMatrix values="0 0 0 0 0.99609375 0 0 0 0 0.99609375 0 0 0 0 0.99609375 0 0 0 1 0" /></filter></defs><mask id="09341f68-87c8-4732-9a5f-5eb5f8382228"><g mask="url(#00db45f0-363d-4cac-886b-a37edb7d64a8)" filter="url(#db575ef4-939f-4ce2-a989-9baeb4451150)"><g><rect fill="#b722ff" fill-opacity="0" stroke-width="2" x="0" y="0" width="150" height="155.87816562574693" class="image-rect" /><svg x="0" y="0" width="150" height="155.87816562574693" class="image-svg-svg primary"><svg xmlns="http://www.w3.org/2000/svg" viewBox="5.998107433319092 5.001715660095215 848.6570434570312 881.9102783203125"><path fill="#424242" d="M717.37 303.14c-2.68-4.59-5.44-9.17-8.42-13.76C598.51 119.18 444.24-10.81 365.91 6.56c-22.46 4.59-45.68 22.74-68.15 50.97 45.48 1.57 90.96 20.34 132.88 52.7 23.9 11.64 52.71 32.34 83.19 60.29 36.91 29.37 159.56 168.27 227.52 333.7 26.13 66.68 33.61 120.77 19.5 142.54l-.47.7c-15.26 23.52-75.35 39.42-155.95 40.82-7.23 27.37-16.69 52.8-28.21 75.79 128.54 4.73 234.69-17.88 264.65-64.91 41.97-63.5-15.5-238.22-123.5-396.02z" /><linearGradient id="a15faca58-17ae-4510-9ebf-bd9bb74b2989" gradientUnits="userSpaceOnUse" x1="3970.418" y1="-3019.659" x2="3817.503" y2="-2994.173" gradientTransform="rotate(-87.025 4164.292 378.38)"><stop offset="0" stop-color="#f0584b" /><stop offset="1" stop-color="#c73f3d" /></linearGradient><path fill="url(#a15faca58-17ae-4510-9ebf-bd9bb74b2989)" d="M811.7 473.34a874.041 874.041 0 0 0-20.99-45.53c-10.68 34.1-23.92 69.3-39.27 104.43 17.68 53.56 21.48 95.89 9.4 114.5l-.47.7c-2.74 4.25-7.04 8.2-12.53 11.92 30.22-15.76 88.19-43.71 63.86-186.02z" /><path fill="#F90" d="M726.65 211.21l.59.64c19.44 21.55 18.52 87.45-3.09 169.66C640.79 600.47 598 626.17 501.5 721.49c-65.78 52.61-125.03 79.91-152.49 70.99l-.82-.26c-18.42-5.96-38.84-33.58-57.05-75.59-32.8-9.19-63.99-19.74-92.9-31.24 29.41 105.11 73.59 183.07 120.83 197.95 70.79 23.66 220.19-72.78 343.35-213.42 155.9-184.06 194.81-458.38 135.59-522.45-38.18-41.3-147.38-47.46-275.1-21.8 30.2 19.16 60.76 41.03 90.72 64.99 56.31-3.22 98.18 4.08 113.02 20.55z" /><linearGradient id="b77010bb7-f5cf-402f-91bb-ae336e7ecfce" gradientUnits="userSpaceOnUse" x1="3593.722" y1="-2976.62" x2="4073.848" y2="-2976.62" gradientTransform="rotate(-87.025 4164.292 378.38)"><stop offset="0" stop-color="#fcba39" /><stop offset="1" stop-color="#d96d2d" /></linearGradient><path fill="url(#b77010bb7-f5cf-402f-91bb-ae336e7ecfce)" d="M801.36 450.07c-.22-.47-.44-.93-.65-1.39.11.21.18.46.32.69.1.23.22.47.33.7z" /><linearGradient id="c4104f108-6890-428e-9a08-033082ea31d5" gradientUnits="userSpaceOnUse" x1="3592.972" y1="-2965.878" x2="4073.845" y2="-2965.878" gradientTransform="rotate(-87.025 4164.292 378.38)"><stop offset="0" stop-color="#fcba39" /><stop offset="1" stop-color="#d96d2d" /></linearGradient><path fill="url(#c4104f108-6890-428e-9a08-033082ea31d5)" d="M810.83 471.37c-.11-.24-.22-.51-.34-.76.1.22.18.43.28.63.02.07.05.1.06.13z" /><radialGradient id="df17ca2dc-94b0-4893-bd0a-ba1d9cd7d33d" cx="3854.802" cy="-3342.029" r="341.002" gradientTransform="rotate(-87.025 4164.292 378.38)"><stop offset="0" stop-color="#f9b314" /><stop offset="1" stop-color="#ec5222" /></radialGradient><path fill="url(#df17ca2dc-94b0-4893-bd0a-ba1d9cd7d33d)" d="M810.49 470.61a770.91 770.91 0 0 0-7.43-16.76c1.48 3.25 2.88 6.47 4.31 9.7 1.02 2.34 2.13 4.75 3.12 7.06z" /><radialGradient id="e2f8bc5d5-8e4d-443d-b9e2-db3bb98642fb" cx="3854.861" cy="-3342.198" r="341.148" gradientTransform="rotate(-87.025 4164.292 378.38)"><stop offset="0" stop-color="#f9b314" /><stop offset="1" stop-color="#ec5222" /></radialGradient><path fill="url(#e2f8bc5d5-8e4d-443d-b9e2-db3bb98642fb)" d="M811.74 473.58c34.91 82.33 49.54 155.84 38.37 202 .23-.18.51-.35.71-.54 11.38-45.85-4.14-119.55-39.1-201.58.01.04.02.08.02.12z" /><radialGradient id="f2268d93f-a30f-4cf0-9429-09b4e5df1086" cx="3854.882" cy="-3342.126" r="341.078" gradientTransform="rotate(-87.025 4164.292 378.38)"><stop offset="0" stop-color="#f9b314" /><stop offset="1" stop-color="#ec5222" /></radialGradient><path fill="url(#f2268d93f-a30f-4cf0-9429-09b4e5df1086)" d="M790.71 427.81c3.47 6.98 6.77 13.94 10 20.86-3.23-6.92-6.53-13.87-10-20.86z" /><linearGradient id="gf872c43c-8890-4771-b971-41b57220f59c" gradientUnits="userSpaceOnUse" x1="3589.765" y1="-2967.653" x2="4075.715" y2="-2967.653" gradientTransform="rotate(-87.025 4164.292 378.38)"><stop offset="0" stop-color="#fcba39" /><stop offset="1" stop-color="#d96d2d" /></linearGradient><path fill="url(#gf872c43c-8890-4771-b971-41b57220f59c)" d="M810.78 471.25c-.1-.2-.18-.41-.28-.63-1-2.31-2.11-4.72-3.12-7.05 1.13 2.57 2.31 5.14 3.4 7.68z" /><radialGradient id="h9a56dcd4-5d3c-4940-b934-a20c0efac808" cx="3854.906" cy="-3341.698" r="340.698" gradientTransform="rotate(-87.025 4164.292 378.38)"><stop offset="0" stop-color="#f9b314" /><stop offset="1" stop-color="#ec5222" /></radialGradient><path fill="url(#h9a56dcd4-5d3c-4940-b934-a20c0efac808)" d="M810.78 471.25c-.1-.2-.18-.41-.28-.63-1-2.31-2.11-4.72-3.12-7.05 1.13 2.57 2.31 5.14 3.4 7.68z" /><linearGradient id="i1f09dce8-9984-4e99-9003-7970bf9d2193" gradientUnits="userSpaceOnUse" x1="3589.413" y1="-3008.344" x2="4075.959" y2="-3008.344" gradientTransform="rotate(-87.025 4164.292 378.38)"><stop offset="0" stop-color="#fcba39" /><stop offset="1" stop-color="#d96d2d" /></linearGradient><path fill="url(#i1f09dce8-9984-4e99-9003-7970bf9d2193)" d="M757.37 651.26c1.13-1.24 2.16-2.51 3.01-3.82-.85 1.32-1.89 2.57-3.01 3.82z" /><radialGradient id="jafbf7637-e5cd-4d01-970a-b8551172c85a" cx="3854.88" cy="-3342.837" r="341.716" gradientTransform="rotate(-87.025 4164.292 378.38)"><stop offset="0" stop-color="#f9b314" /><stop offset="1" stop-color="#ec5222" /></radialGradient><path fill="url(#jafbf7637-e5cd-4d01-970a-b8551172c85a)" d="M757.37 651.26c1.13-1.24 2.16-2.51 3.01-3.82-.85 1.32-1.89 2.57-3.01 3.82z" /><linearGradient id="k262e2e28-d159-4af0-940b-20f6cd13d6a1" gradientUnits="userSpaceOnUse" x1="3589.43" y1="-3147.678" x2="4075.905" y2="-3147.678" gradientTransform="rotate(-87.025 4164.292 378.38)"><stop offset="0" stop-color="#fcba39" /><stop offset="1" stop-color="#d96d2d" /></linearGradient><path fill="url(#k262e2e28-d159-4af0-940b-20f6cd13d6a1)" d="M811.74 473.58c24.21 142.09-33.69 170.02-63.89 185.79.12-.07.21-.15.31-.25-26.04 17.72-81.94 28.96-152.48 29.27-98.4-10.07-161.58-22.06-210.65-37.73.61 10.49 1.9 21.02 4.15 31.55.86 4.06 1.87 8.09 2.96 12.07 193.16 51.92 402.61 27.34 457.97-18.71 11.17-46.15-3.46-119.66-38.37-201.99z" /><linearGradient id="l56b05569-248a-45fa-8828-1b4e8fda00e7" gradientUnits="userSpaceOnUse" x1="3590.375" y1="-3012.132" x2="4073.043" y2="-3012.132" gradientTransform="rotate(-87.025 4164.292 378.38)"><stop offset="0" stop-color="#fcba39" /><stop offset="1" stop-color="#d96d2d" /></linearGradient><path fill="url(#l56b05569-248a-45fa-8828-1b4e8fda00e7)" d="M753.81 654.76c.72-.66 1.42-1.29 2.08-1.93-.65.63-1.36 1.27-2.08 1.93z" /><radialGradient id="m80bc7386-f4fa-4fb3-85a4-99ef1ba30cba" cx="3853.725" cy="-3339.369" r="338.259" gradientTransform="rotate(-87.025 4164.292 378.38)"><stop offset="0" stop-color="#f9b314" /><stop offset="1" stop-color="#ec5222" /></radialGradient><path fill="url(#m80bc7386-f4fa-4fb3-85a4-99ef1ba30cba)" d="M753.81 654.76c.72-.66 1.42-1.29 2.08-1.93-.65.63-1.36 1.27-2.08 1.93z" /><linearGradient id="n4d7473a2-37f8-4605-804f-85fbbfde4375" gradientUnits="userSpaceOnUse" x1="3589.706" y1="-2982.336" x2="4075.76" y2="-2982.336" gradientTransform="rotate(-87.025 4164.292 378.38)"><stop offset="0" stop-color="#fcba39" /><stop offset="1" stop-color="#d96d2d" /></linearGradient><path fill="url(#n4d7473a2-37f8-4605-804f-85fbbfde4375)" d="M800.71 448.68c-3.22-6.92-6.53-13.88-10-20.86 3.58 7.23 7 14.42 10.31 21.55-.13-.24-.21-.48-.31-.69z" /><radialGradient id="od0959cc5-c089-4746-a6cb-1dab9912f9a1" cx="3854.904" cy="-3342.443" r="341.362" gradientTransform="rotate(-87.025 4164.292 378.38)"><stop offset="0" stop-color="#f9b314" /><stop offset="1" stop-color="#ec5222" /></radialGradient><path fill="url(#od0959cc5-c089-4746-a6cb-1dab9912f9a1)" d="M800.71 448.68c-3.22-6.92-6.53-13.88-10-20.86 3.58 7.23 7 14.42 10.31 21.55-.13-.24-.21-.48-.31-.69z" /><linearGradient id="p9f55e614-d6f3-4727-a2ac-e50cc41397b4" gradientUnits="userSpaceOnUse" x1="3976.866" y1="-2978.614" x2="3824.7" y2="-2953.253" gradientTransform="rotate(-87.025 4164.292 378.38)"><stop offset="0" stop-color="#f0584b" /><stop offset="1" stop-color="#c73f3d" /></linearGradient><path fill="url(#p9f55e614-d6f3-4727-a2ac-e50cc41397b4)" d="M811.72 473.46c-.02-.04-.02-.07-.02-.11-.28-.67-.6-1.31-.87-1.97.03.06.04.1.04.16.29.65.57 1.26.85 1.92z" /><linearGradient id="q5cb9c557-5e60-42f7-b1e1-187b8478fcae" gradientUnits="userSpaceOnUse" x1="3976.15" y1="-2985.288" x2="3823.262" y2="-2959.807" gradientTransform="rotate(-87.025 4164.292 378.38)"><stop offset="0" stop-color="#f0584b" /><stop offset="1" stop-color="#c73f3d" /></linearGradient><path fill="url(#q5cb9c557-5e60-42f7-b1e1-187b8478fcae)" d="M803.06 453.86c-.58-1.26-1.12-2.5-1.71-3.79.32.67.59 1.33.89 1.99.28.6.55 1.2.82 1.8z" /><linearGradient id="ra6d0533b-ce56-4764-99ea-bc20d6fd44ea" gradientUnits="userSpaceOnUse" x1="3963.472" y1="-3058.251" x2="3810.856" y2="-3032.815" gradientTransform="rotate(-87.025 4164.292 378.38)"><stop offset="0" stop-color="#f0584b" /><stop offset="1" stop-color="#c73f3d" /></linearGradient><path fill="url(#ra6d0533b-ce56-4764-99ea-bc20d6fd44ea)" d="M748.16 659.12c2.08-1.4 3.95-2.87 5.65-4.36-1.72 1.49-3.57 2.96-5.65 4.36z" /><linearGradient id="s1eefe0e9-a2a7-4fc3-aab4-82e3f403839c" gradientUnits="userSpaceOnUse" x1="3967.854" y1="-3052.74" x2="3813.184" y2="-3026.961" gradientTransform="rotate(-87.025 4164.292 378.38)"><stop offset="0" stop-color="#f0584b" /><stop offset="1" stop-color="#c73f3d" /></linearGradient><path fill="url(#s1eefe0e9-a2a7-4fc3-aab4-82e3f403839c)" d="M755.89 652.83c.53-.53 1.02-1.05 1.48-1.57-.47.52-.95 1.04-1.48 1.57z" /><linearGradient id="t4c082e81-1db0-4c65-a6c7-7f4dcea869f6" gradientUnits="userSpaceOnUse" x1="3589.334" y1="-2975.949" x2="4075.937" y2="-2975.949" gradientTransform="rotate(-87.025 4164.292 378.38)"><stop offset="0" stop-color="#fcba39" /><stop offset="1" stop-color="#d96d2d" /></linearGradient><path fill="url(#t4c082e81-1db0-4c65-a6c7-7f4dcea869f6)" d="M802.24 452.06c-.3-.66-.57-1.32-.89-1.99-.11-.23-.22-.47-.33-.7.42.89.8 1.79 1.22 2.69z" /><linearGradient id="uef25282d-9b33-47cf-91e2-2271c3afbd52" gradientUnits="userSpaceOnUse" x1="3975.994" y1="-2985.697" x2="3823.288" y2="-2960.246" gradientTransform="rotate(-87.025 4164.292 378.38)"><stop offset="0" stop-color="#f0584b" /><stop offset="1" stop-color="#c73f3d" /></linearGradient><path fill="url(#uef25282d-9b33-47cf-91e2-2271c3afbd52)" d="M802.24 452.06c-.3-.66-.57-1.32-.89-1.99-.11-.23-.22-.47-.33-.7.42.89.8 1.79 1.22 2.69z" /><linearGradient id="v02933143-f468-49d3-8e96-51347abf81e8" gradientUnits="userSpaceOnUse" x1="3574.008" y1="-2965.695" x2="4084.842" y2="-2965.695" gradientTransform="rotate(-87.025 4164.292 378.38)"><stop offset="0" stop-color="#fcba39" /><stop offset="1" stop-color="#d96d2d" /></linearGradient><path fill="url(#v02933143-f468-49d3-8e96-51347abf81e8)" d="M810.88 471.53c0-.06-.02-.1-.04-.16-.02-.04-.04-.06-.06-.12.04.09.08.18.1.28z" /><linearGradient id="wc016fafd-0b7b-4830-a6b6-bd4cebe185af" gradientUnits="userSpaceOnUse" x1="3981.321" y1="-2979.692" x2="3820.509" y2="-2952.891" gradientTransform="rotate(-87.025 4164.292 378.38)"><stop offset="0" stop-color="#f0584b" /><stop offset="1" stop-color="#c73f3d" /></linearGradient><path fill="url(#wc016fafd-0b7b-4830-a6b6-bd4cebe185af)" d="M810.88 471.53c0-.06-.02-.1-.04-.16-.02-.04-.04-.06-.06-.12.04.09.08.18.1.28z" /><radialGradient id="xfec54907-1f19-4c72-abdf-8c298a06c7df" cx="3854.867" cy="-3342.347" r="341.283" gradientTransform="rotate(-87.025 4164.292 378.38)"><stop offset="0" stop-color="#f9b314" /><stop offset="1" stop-color="#ec5222" /></radialGradient><path fill="url(#xfec54907-1f19-4c72-abdf-8c298a06c7df)" d="M807.37 463.56c-1.43-3.23-2.83-6.45-4.31-9.7-.27-.6-.54-1.2-.82-1.8 1.77 3.86 3.44 7.67 5.13 11.5z" /><linearGradient id="y8e160249-dbae-45c2-bf41-fc29a61ed40c" gradientUnits="userSpaceOnUse" x1="3976.434" y1="-2983.386" x2="3823.592" y2="-2957.913" gradientTransform="rotate(-87.025 4164.292 378.38)"><stop offset="0" stop-color="#f0584b" /><stop offset="1" stop-color="#c73f3d" /></linearGradient><path fill="url(#y8e160249-dbae-45c2-bf41-fc29a61ed40c)" d="M807.37 463.56c-1.43-3.23-2.83-6.45-4.31-9.7-.27-.6-.54-1.2-.82-1.8 1.77 3.86 3.44 7.67 5.13 11.5z" /><radialGradient id="z0a5494fe-7907-43a9-b646-d1c59cbe52a0" cx="3855.067" cy="-3347.97" r="346.281" gradientTransform="rotate(-87.025 4164.292 378.38)"><stop offset="0" stop-color="#f9b314" /><stop offset="1" stop-color="#ec5222" /></radialGradient><path fill="url(#z0a5494fe-7907-43a9-b646-d1c59cbe52a0)" d="M811.74 473.58c0-.04-.01-.08-.02-.12-.28-.66-.56-1.27-.84-1.93.3.68.55 1.35.86 2.05z" /><linearGradient id="Acd98ae6e-bb6b-4c5b-953b-b7e2bc1018b3" gradientUnits="userSpaceOnUse" x1="3976.729" y1="-2978.575" x2="3824.803" y2="-2953.254" gradientTransform="rotate(-87.025 4164.292 378.38)"><stop offset="0" stop-color="#f0584b" /><stop offset="1" stop-color="#c73f3d" /></linearGradient><path fill="url(#Acd98ae6e-bb6b-4c5b-953b-b7e2bc1018b3)" d="M811.74 473.58c0-.04-.01-.08-.02-.12-.28-.66-.56-1.27-.84-1.93.3.68.55 1.35.86 2.05z" /><linearGradient id="B2b6c62b0-6514-4de4-8c4f-b869b4d90146" gradientUnits="userSpaceOnUse" x1="3589.423" y1="-2988.603" x2="4075.87" y2="-2988.603" gradientTransform="rotate(-87.025 4164.292 378.38)"><stop offset="0" stop-color="#fcba39" /><stop offset="1" stop-color="#d96d2d" /></linearGradient><path fill="url(#B2b6c62b0-6514-4de4-8c4f-b869b4d90146)" d="M811.74 473.58c-.31-.69-.56-1.37-.86-2.05-.02-.1-.06-.19-.1-.28-1.09-2.54-2.27-5.11-3.4-7.69-1.69-3.83-3.36-7.64-5.13-11.51-.42-.9-.81-1.79-1.22-2.69-3.31-7.13-6.74-14.32-10.31-21.55-10.68 34.1-23.92 69.3-39.27 104.43 17.68 53.56 21.48 95.89 9.4 114.5l-.47.7c-.85 1.31-1.88 2.58-3.01 3.82-.46.52-.95 1.04-1.48 1.57-.66.63-1.35 1.27-2.08 1.93-1.7 1.5-3.57 2.96-5.65 4.36-.1.1-.19.18-.31.25 30.19-15.77 88.1-43.7 63.89-185.79z" /><radialGradient id="Caf9b6b14-3a16-4007-b22a-48781c9272b6" cx="3854.838" cy="-3342.306" r="341.245" gradientTransform="rotate(-87.025 4164.292 378.38)"><stop offset="0" stop-color="#f9b314" /><stop offset="1" stop-color="#ec5222" /></radialGradient><path fill="url(#Caf9b6b14-3a16-4007-b22a-48781c9272b6)" d="M811.74 473.58c-.31-.69-.56-1.37-.86-2.05-.02-.1-.06-.19-.1-.28-1.09-2.54-2.27-5.11-3.4-7.69-1.69-3.83-3.36-7.64-5.13-11.51-.42-.9-.81-1.79-1.22-2.69-3.31-7.13-6.74-14.32-10.31-21.55-10.68 34.1-23.92 69.3-39.27 104.43 17.68 53.56 21.48 95.89 9.4 114.5l-.47.7c-.85 1.31-1.88 2.58-3.01 3.82-.46.52-.95 1.04-1.48 1.57-.66.63-1.35 1.27-2.08 1.93-1.7 1.5-3.57 2.96-5.65 4.36-.1.1-.19.18-.31.25 30.19-15.77 88.1-43.7 63.89-185.79z" /><path fill="#F90" d="M802.32 452.22c-.03-.05-.05-.11-.07-.17-.42-.9-.81-1.79-1.22-2.69-.06-.15-.14-.29-.21-.45a872.78 872.78 0 0 0-10.1-21.1c-10.68 34.1-23.92 69.3-39.27 104.43 17.68 53.56 21.48 95.89 9.4 114.5l-.47.7c-.85 1.31-1.88 2.58-3.01 3.82-.44.5-.91.99-1.42 1.5-.57.57-1.19 1.13-1.81 1.69-.11.1-.22.21-.33.31-1.67 1.48-3.52 2.9-5.55 4.31-.05.04-.09.05-.13.09-1.39.94-2.92 1.86-4.47 2.79-.4.22-.78.45-1.19.68-1.51.85-3.1 1.67-4.76 2.48-.54.26-1.09.52-1.64.78-1.67.78-3.37 1.55-5.17 2.31-.59.25-1.23.47-1.83.71-1.88.75-3.77 1.5-5.78 2.22-.07.03-.14.04-.21.06-3.9 1.4-8.11 2.67-12.48 3.9-1.36.38-2.69.79-4.1 1.14-1.5.39-3.08.75-4.62 1.13-1.85.46-3.71.89-5.63 1.33-1.39.29-2.83.58-4.26.88-2.3.47-4.62.92-6.99 1.36-1.21.22-2.42.43-3.65.66-3.02.52-6.1 1-9.23 1.45-.69.11-1.36.21-2.05.32-16.72 2.37-35.18 3.95-55.02 4.64h-.03c-5 .17-10.11.27-15.3.33 9.78-11.52 19.46-23.36 29-35.54 99.2-130.5 150.41-302.65 158.78-417.36 12.43 3.67 24.53 7.68 36.02 12.24.67-45.02-7.38-80.43-25.51-100.2-27.24-30.75-93.31-41.87-176.7-35.65-.82.07-1.66.14-2.49.2-4.83.38-9.71.81-14.66 1.31-1.39.14-2.78.27-4.16.42-4.85.51-9.73 1.06-14.66 1.7-1.12.13-2.23.26-3.36.41-5.88.77-11.82 1.61-17.82 2.52-1.68.25-3.39.55-5.08.83-4.26.68-8.55 1.39-12.86 2.14-2.49.43-5 .88-7.51 1.35-3.61.67-7.24 1.35-10.89 2.07-1.65.32-3.26.6-4.91.92.02.02.04.03.05.04-45.12 9.08-92.42 21.98-139.52 38.57-5.09 1.41-10.2 2.88-15.39 4.55C220.46 216.74 89.06 295.46 33.81 365.71c-.15.18-.29.37-.43.54-10.81 13.84-18.64 27.32-23.06 40.18-.05.14-.09.27-.14.41a80.286 80.286 0 0 0-2.52 9.11c-.04.15-.07.3-.09.46-.74 3.56-1.31 7.11-1.46 10.57-2.49 41.18 36.76 96.12 100.67 150.94-1.38-8.62-2.04-17.3-2.08-25.98 53.57 40.22 125.01 80.74 204.25 114.48 27.02 11.04 54.92 20.17 83.16 27.73.01.05.02.09.03.12 3.66.98 7.32 1.87 10.99 2.82 1.35.32 2.69.67 4.03 1.02-5.01-1.24-10.02-2.51-15.02-3.84 4.83 17.46 11.87 33.93 20.79 49.28 14.8 3.85 29.63 7.18 44.43 10.09-47.26 31.02-87.23 45.66-108.35 38.81l-.82-.26c-18.42-5.96-38.84-33.58-57.05-75.59-27.94-7.8-54.59-16.68-79.75-26.22-4.32-1.33-8.59-2.61-12.83-3.92 29.13 103.56 72.6 180.46 119.18 196.33 44.61 13.17 126.58-36.1 211.41-118.67 149.66 14.62 282.26-16.77 311.72-65 4.08-6.71 7.09-14.71 9.23-23.57-1.87 1.55-3.95 3.08-6.15 4.57 2.21-1.5 4.28-3.03 6.15-4.57v-.02c.22-.18.51-.35.71-.53 12.35-49.74-6.96-132.33-48.49-222.78zm21.56 238.85c2.68-1.2 5.25-2.44 7.69-3.67-5.97 3.04-12.71 5.96-20.11 8.72 2.65-.99 5.19-2.01 7.66-3.03 1.62-.68 3.22-1.34 4.76-2.02zm-29.71 10.84c1.33-.41 2.59-.82 3.88-1.24 2.95-.92 5.82-1.86 8.6-2.83-7.9 2.77-16.47 5.36-25.7 7.74 4.57-1.19 8.98-2.4 13.22-3.67zm-17.1 4.61c.71-.18 1.43-.35 2.15-.54-4.81 1.22-9.83 2.38-14.98 3.5.36-.09.72-.16 1.08-.23 4.01-.88 7.94-1.78 11.75-2.73zm-15.78 3.61c-11.36 2.37-23.47 4.45-36.2 6.22l2.29-.3c11.91-1.73 23.24-3.7 33.91-5.92zm-54.7 8.56c6.09-.68 12.05-1.43 17.88-2.24-5.95.84-12.04 1.6-18.26 2.3.12-.03.26-.04.38-.06zm-.66.09c-13.33 1.46-27.27 2.6-41.66 3.37 14.4-.78 28.33-1.91 41.66-3.37zM209.67 561.33c-40.55-29.85-71.65-59.74-89.89-85.16-1.31-1.81-2.57-3.62-3.74-5.41-.33-.47-.61-.93-.91-1.42-3.27-5.05-5.94-9.87-8.06-14.48-.46-1.01-.94-2.01-1.34-3.01-.42-1.01-.77-1.98-1.12-2.97-.39-1.1-.76-2.19-1.07-3.26-.26-.86-.5-1.72-.7-2.56-.3-1.2-.52-2.37-.7-3.53-.11-.67-.24-1.35-.31-2-.19-1.78-.28-3.51-.19-5.15l.03-.85c.08-1.46.3-2.97.61-4.51.09-.48.22-.97.34-1.46.27-1.13.6-2.28.98-3.43.18-.54.33-1.05.53-1.59.58-1.58 1.24-3.2 2.02-4.84.21-.44.48-.92.7-1.36.62-1.24 1.3-2.52 2.04-3.8.44-.76.91-1.54 1.38-2.31.63-1.01 1.3-2.04 1.99-3.07.56-.84 1.11-1.68 1.71-2.52.84-1.19 1.75-2.38 2.67-3.59 1.15-1.5 2.36-3.02 3.63-4.56.62-.76 1.24-1.51 1.9-2.28 1.04-1.19 2.1-2.41 3.2-3.63.53-.58 1.09-1.18 1.64-1.78 4.17-4.49 8.8-9.1 13.9-13.77.19-.17.38-.35.56-.51 1.83-1.67 3.7-3.35 5.64-5.04.02-.02.04-.04.05-.04 4.01-3.48 8.26-7 12.72-10.56v-.02c12.59-9.99 26.92-20.17 42.82-30.29 180.77-86.1 293.65-111.07 381.22-133.42 10.27-1.15 20.14-1.96 29.64-2.5.01 0 .03.02.04.03 21.09-1.21 40.14-.95 56.51.74.07 0 .14 0 .21.02 2.67.26 5.26.58 7.79.92.08.01.15.03.23.04 7.59 1.06 14.49 2.45 20.65 4.18.07.02.14.03.22.04 1.42.41 2.74.86 4.07 1.29.84.26 1.68.53 2.49.82 1.11.4 2.16.82 3.21 1.23.93.38 1.85.76 2.73 1.15.89.41 1.76.81 2.6 1.25.94.47 1.83.96 2.7 1.44.7.41 1.42.82 2.08 1.24.94.61 1.81 1.23 2.65 1.86.49.36 1.01.71 1.47 1.09 1.25 1.04 2.41 2.11 3.42 3.23l.59.64c1.29 1.42 2.49 3.08 3.6 4.92 0 .02.01.04.02.04 1.1 1.81 2.1 3.82 3.03 5.98 12.15 28.5 9.01 87.44-9.74 158.72-70.77 185.93-112.33 232.51-182.33 300.7-185.58-23.65-224.76-58.04-332.13-120.89zm296.97 155.1c-24.16-3.01-48.57-7.03-72.93-12.22 7.07 1.5 14.14 2.89 21.22 4.21a874.835 874.835 0 0 0 51.68 7.98c.01.01.03.01.03.03zm-98.53-18.05c7.6 1.87 15.24 3.63 22.88 5.29.6.11 1.2.25 1.79.36-8.24-1.76-16.46-3.64-24.67-5.65zm161.87 23.68c16.17.87 32.05 1.29 47.57 1.31h.63c15.26 0 30.13-.39 44.55-1.15-29.26 1.53-60.45 1.58-92.75-.16zm263.54-35.72c.69-.36 1.4-.75 2.07-1.11 1.66-.92 3.23-1.85 4.75-2.78.32-.21.62-.4.94-.6-2.41 1.53-5 3.03-7.76 4.49z" /><path fill="#424242" d="M790.71 427.81c-10.68 34.1-23.92 69.3-39.27 104.43 17.68 53.56 21.48 95.89 9.4 114.5l-.47.7c-15.79 24.37-79.69 40.59-164.69 40.95-180.16-18.44-242.5-43.36-315.58-85.38-17.06-9.83-34.81-20.58-54.69-32.39-5.11-3.04-10.32-6.11-15.74-9.3-33.04-24.34-59.84-48.7-78.52-70.67v.02c-19.64-23.1-30.29-43.51-29.51-58.29l.03-.85c1-19.33 22.37-46.2 58.22-74.66.41-34.04 2.51-66.91 6.16-97.82C72.15 314.66 8.26 377.53 6.11 426.99 2.42 488.08 90.37 579.32 214.6 655.68c.11.06.22.14.33.21a1046.7 1046.7 0 0 0 19.3 11.54c.67.4 1.33.78 2.01 1.18 6.71 3.91 13.51 7.77 20.39 11.58.28.15.57.29.84.45 6.24 3.44 12.54 6.82 18.9 10.14 1.48.78 2.96 1.57 4.45 2.32 6.72 3.48 13.47 6.94 20.32 10.3.87.41 1.77.78 2.65 1.2 217.73 101.4 494.12 61.99 537.08-5.45 31.01-46.93 7.68-154.64-50.16-271.34z" /><path fill="#3299BB" d="M349.01 792.47l-.82-.26c-27.64-8.96-59.79-66.47-82.19-148.5C228.73 412.44 252.93 368.8 288.86 238c30.65-78.44 68.33-131.72 96.57-137.76l.84-.15c18.94-4.06 50.43 9.64 87.18 36.89 33.02-8.41 65.29-14.87 96.09-19.37C491.51 41.28 414.25-4.16 365.91 6.56 292.78 21.5 211.62 179.73 175.28 363.11c-42.99 237.33 62.34 495.95 143.79 520.23 53.9 16.09 151.37-32.59 249.15-118.67-35.73-1.48-73.14-5.16-111.07-10.91-47.15 30.96-87.06 45.56-108.14 38.71z" /><path fill="#3299BB" d="M367.33 6.35c-63.05 15.19-128.35 171.74-154.3 354.75-28.93 227.71 64.46 479.21 131.93 525.61 55.88-1.05 139.62-48.39 223.26-122.05-35.73-1.48-73.14-5.16-111.07-10.91-47.15 30.96-87.06 45.56-108.14 38.71l-.82-.26c-27.64-8.96-59.79-66.47-82.19-148.5-37.27-231.26-13.07-274.9 22.86-405.7 30.65-78.44 68.33-131.72 96.57-137.76l.84-.15c18.94-4.06 50.43 9.64 87.18 36.89 28.11-7.14 55.63-12.83 82.21-17.13 4.39-1.03 8.76-2.03 13.06-3.01C491.69 41.7 415.59-3.2 367.33 6.35z" /><path fill="#F90" d="M529.66 796.72a909.176 909.176 0 0 0 38.56-32.05c-35.73-1.48-73.14-5.16-111.07-10.91-47.15 30.96-87.06 45.56-108.14 38.71l-.82-.26c-4.82-1.57-9.75-4.67-14.76-9.01 23.03 25.1 65.06 73.86 196.23 13.52z" /><path fill="#424242" d="M568.72 116.84c-.12-.11-.25-.24-.37-.35-32.61-29.25-85.98-42.42-141.59-30.58a193.54 193.54 0 0 0-44.67 15.37c1.12-.37 2.24-.8 3.35-1.05l.84-.15c18.94-4.06 50.43 9.64 87.18 36.89 28.11-7.14 55.63-12.83 82.21-17.13 4.37-1.02 8.74-2.02 13.05-3z" /></svg></svg></g></g></mask></svg>